<?xml version="1.0" encoding="UTF-8" standalone="no"?><svg xmlns="http://www.w3.org/2000/svg" xmlns:xlink="http://www.w3.org/1999/xlink" contentStyleType="text/css" height="345px" preserveAspectRatio="none" style="width:830px;height:345px;background:#FFFFFF;" version="1.1" viewBox="0 0 830 345" width="830px" zoomAndPan="magnify"><defs/><g><rect height="26.2969" style="stroke:#00000000;stroke-width:1.0;fill:none;" width="264" x="282.25" y="10"/><text fill="#000000" font-family="sans-serif" font-size="14" font-weight="bold" lengthAdjust="spacing" textLength="254" x="287.25" y="27.9951">Science Processing Deployment</text><line style="stroke:#181818;stroke-width:0.5;stroke-dasharray:5.0,5.0;" x1="31" x2="31" y1="73.5938" y2="310.5234"/><line style="stroke:#181818;stroke-width:0.5;stroke-dasharray:5.0,5.0;" x1="317.5" x2="317.5" y1="73.5938" y2="310.5234"/><line style="stroke:#181818;stroke-width:0.5;stroke-dasharray:5.0,5.0;" x1="603.5" x2="603.5" y1="73.5938" y2="310.5234"/><line style="stroke:#181818;stroke-width:0.5;stroke-dasharray:5.0,5.0;" x1="755.5" x2="755.5" y1="73.5938" y2="310.5234"/><rect fill="#E2E2F0" height="30.2969" rx="2.5" ry="2.5" style="stroke:#181818;stroke-width:0.5;" width="53" x="5" y="42.2969"/><text fill="#000000" font-family="sans-serif" font-size="14" lengthAdjust="spacing" textLength="39" x="12" y="62.292">Client</text><rect fill="#E2E2F0" height="30.2969" rx="2.5" ry="2.5" style="stroke:#181818;stroke-width:0.5;" width="53" x="5" y="309.5234"/><text fill="#000000" font-family="sans-serif" font-size="14" lengthAdjust="spacing" textLength="39" x="12" y="329.5186">Client</text><rect fill="#E2E2F0" height="30.2969" rx="2.5" ry="2.5" style="stroke:#181818;stroke-width:0.5;" width="44" x="295.5" y="42.2969"/><text fill="#000000" font-family="sans-serif" font-size="14" lengthAdjust="spacing" textLength="30" x="302.5" y="62.292">EMS</text><rect fill="#E2E2F0" height="30.2969" rx="2.5" ry="2.5" style="stroke:#181818;stroke-width:0.5;" width="44" x="295.5" y="309.5234"/><text fill="#000000" font-family="sans-serif" font-size="14" lengthAdjust="spacing" textLength="30" x="302.5" y="329.5186">EMS</text><rect fill="#E2E2F0" height="30.2969" rx="2.5" ry="2.5" style="stroke:#181818;stroke-width:0.5;" width="52" x="577.5" y="42.2969"/><text fill="#000000" font-family="sans-serif" font-size="14" lengthAdjust="spacing" textLength="38" x="584.5" y="62.292">ADES</text><rect fill="#E2E2F0" height="30.2969" rx="2.5" ry="2.5" style="stroke:#181818;stroke-width:0.5;" width="52" x="577.5" y="309.5234"/><text fill="#000000" font-family="sans-serif" font-size="14" lengthAdjust="spacing" textLength="38" x="584.5" y="329.5186">ADES</text><rect fill="#E2E2F0" height="30.2969" rx="2.5" ry="2.5" style="stroke:#181818;stroke-width:0.5;" width="138" x="686.5" y="42.2969"/><text fill="#000000" font-family="sans-serif" font-size="14" lengthAdjust="spacing" textLength="124" x="693.5" y="62.292">Algorithm_Catalog</text><rect fill="#E2E2F0" height="30.2969" rx="2.5" ry="2.5" style="stroke:#181818;stroke-width:0.5;" width="138" x="686.5" y="309.5234"/><text fill="#000000" font-family="sans-serif" font-size="14" lengthAdjust="spacing" textLength="124" x="693.5" y="329.5186">Algorithm_Catalog</text><polygon fill="#181818" points="305.5,100.7266,315.5,104.7266,305.5,108.7266,309.5,104.7266" style="stroke:#181818;stroke-width:1.0;"/><line style="stroke:#181818;stroke-width:1.0;" x1="31.5" x2="311.5" y1="104.7266" y2="104.7266"/><text fill="#000000" font-family="sans-serif" font-size="13" lengthAdjust="spacing" textLength="254" x="38.5" y="99.6606">Algorithm Deployment Request (WPS-T)</text><polygon fill="#181818" points="591.5,129.8594,601.5,133.8594,591.5,137.8594,595.5,133.8594" style="stroke:#181818;stroke-width:1.0;"/><line style="stroke:#181818;stroke-width:1.0;" x1="317.5" x2="597.5" y1="133.8594" y2="133.8594"/><text fill="#000000" font-family="sans-serif" font-size="13" lengthAdjust="spacing" textLength="254" x="324.5" y="128.7935">Algorithm Deployment Request (WPS-T)</text><polygon fill="#181818" points="743.5,158.9922,753.5,162.9922,743.5,166.9922,747.5,162.9922" style="stroke:#181818;stroke-width:1.0;"/><line style="stroke:#181818;stroke-width:1.0;" x1="603.5" x2="749.5" y1="162.9922" y2="162.9922"/><text fill="#000000" font-family="sans-serif" font-size="13" lengthAdjust="spacing" textLength="60" x="610.5" y="157.9263">OGC CWL</text><polygon fill="#181818" points="614.5,188.125,604.5,192.125,614.5,196.125,610.5,192.125" style="stroke:#181818;stroke-width:1.0;"/><line style="stroke:#181818;stroke-width:1.0;" x1="608.5" x2="754.5" y1="192.125" y2="192.125"/><text fill="#000000" font-family="sans-serif" font-size="13" lengthAdjust="spacing" textLength="128" x="620.5" y="187.0591">Application Package</text><line style="stroke:#181818;stroke-width:1.0;" x1="603.5" x2="645.5" y1="221.2578" y2="221.2578"/><line style="stroke:#181818;stroke-width:1.0;" x1="645.5" x2="645.5" y1="221.2578" y2="234.2578"/><line style="stroke:#181818;stroke-width:1.0;" x1="604.5" x2="645.5" y1="234.2578" y2="234.2578"/><polygon fill="#181818" points="614.5,230.2578,604.5,234.2578,614.5,238.2578,610.5,234.2578" style="stroke:#181818;stroke-width:1.0;"/><text fill="#000000" font-family="sans-serif" font-size="13" lengthAdjust="spacing" textLength="118" x="610.5" y="216.1919">Deploy Application</text><polygon fill="#181818" points="328.5,259.3906,318.5,263.3906,328.5,267.3906,324.5,263.3906" style="stroke:#181818;stroke-width:1.0;"/><line style="stroke:#181818;stroke-width:1.0;" x1="322.5" x2="602.5" y1="263.3906" y2="263.3906"/><text fill="#000000" font-family="sans-serif" font-size="13" lengthAdjust="spacing" textLength="262" x="334.5" y="258.3247">Algorithm Registration Response (WPS-T)</text><polygon fill="#181818" points="42.5,288.5234,32.5,292.5234,42.5,296.5234,38.5,292.5234" style="stroke:#181818;stroke-width:1.0;"/><line style="stroke:#181818;stroke-width:1.0;" x1="36.5" x2="316.5" y1="292.5234" y2="292.5234"/><text fill="#000000" font-family="sans-serif" font-size="13" lengthAdjust="spacing" textLength="262" x="48.5" y="287.4575">Algorithm Registration Response (WPS-T)</text><!--MD5=[09034284de3d4f56127ccae57a9aecbf]
@startuml
title Science Processing Deployment

Client -> EMS: Algorithm Deployment Request (WPS-T)
EMS -> ADES: Algorithm Deployment Request (WPS-T)

ADES -> Algorithm_Catalog: OGC CWL
Algorithm_Catalog -> ADES: Application Package

ADES -> ADES: Deploy Application


ADES -> EMS: Algorithm Registration Response (WPS-T)
EMS -> Client: Algorithm Registration Response (WPS-T)

@enduml

PlantUML version 1.2022.3(Tue Mar 29 16:10:57 GMT 2022)
(GPL source distribution)
Java Runtime: OpenJDK Runtime Environment
JVM: OpenJDK 64-Bit Server VM
Default Encoding: UTF-8
Language: en
Country: US
--></g></svg>