<?xml version="1.0" encoding="UTF-8" standalone="no"?><svg xmlns="http://www.w3.org/2000/svg" xmlns:xlink="http://www.w3.org/1999/xlink" contentScriptType="application/ecmascript" contentStyleType="text/css" height="439px" preserveAspectRatio="none" style="width:610px;height:439px;background:#FFFFFF;" version="1.1" viewBox="0 0 610 439" width="610px" zoomAndPan="magnify"><defs><filter height="300%" id="f1xyx6r0nts1zb" width="300%" x="-1" y="-1"><feGaussianBlur result="blurOut" stdDeviation="2.0"/><feColorMatrix in="blurOut" result="blurOut2" type="matrix" values="0 0 0 0 0 0 0 0 0 0 0 0 0 0 0 0 0 0 .4 0"/><feOffset dx="4.0" dy="4.0" in="blurOut2" result="blurOut3"/><feBlend in="SourceGraphic" in2="blurOut3" mode="normal"/></filter></defs><g><text fill="#000000" font-family="sans-serif" font-size="18" lengthAdjust="spacing" textLength="213" x="196" y="28.708">ADES process Overview</text><line style="stroke:#A80036;stroke-width:1.0;stroke-dasharray:5.0,5.0;" x1="29" x2="29" y1="75.25" y2="396.4453"/><line style="stroke:#A80036;stroke-width:1.0;stroke-dasharray:5.0,5.0;" x1="329" x2="329" y1="75.25" y2="396.4453"/><line style="stroke:#A80036;stroke-width:1.0;stroke-dasharray:5.0,5.0;" x1="501.5" x2="501.5" y1="75.25" y2="396.4453"/><line style="stroke:#A80036;stroke-width:1.0;stroke-dasharray:5.0,5.0;" x1="581" x2="581" y1="75.25" y2="396.4453"/><rect fill="#FEFECE" filter="url(#f1xyx6r0nts1zb)" height="30.2969" style="stroke:#A80036;stroke-width:1.5;" width="44" x="5" y="39.9531"/><text fill="#000000" font-family="sans-serif" font-size="14" lengthAdjust="spacing" textLength="30" x="12" y="59.9482">EMS</text><rect fill="#FEFECE" filter="url(#f1xyx6r0nts1zb)" height="30.2969" style="stroke:#A80036;stroke-width:1.5;" width="44" x="5" y="395.4453"/><text fill="#000000" font-family="sans-serif" font-size="14" lengthAdjust="spacing" textLength="30" x="12" y="415.4404">EMS</text><rect fill="#FEFECE" filter="url(#f1xyx6r0nts1zb)" height="30.2969" style="stroke:#A80036;stroke-width:1.5;" width="52" x="301" y="39.9531"/><text fill="#000000" font-family="sans-serif" font-size="14" lengthAdjust="spacing" textLength="38" x="308" y="59.9482">ADES</text><rect fill="#FEFECE" filter="url(#f1xyx6r0nts1zb)" height="30.2969" style="stroke:#A80036;stroke-width:1.5;" width="52" x="301" y="395.4453"/><text fill="#000000" font-family="sans-serif" font-size="14" lengthAdjust="spacing" textLength="38" x="308" y="415.4404">ADES</text><rect fill="#FEFECE" filter="url(#f1xyx6r0nts1zb)" height="30.2969" style="stroke:#A80036;stroke-width:1.5;" width="79" x="460.5" y="39.9531"/><text fill="#000000" font-family="sans-serif" font-size="14" lengthAdjust="spacing" textLength="65" x="467.5" y="59.9482">Algorithm</text><rect fill="#FEFECE" filter="url(#f1xyx6r0nts1zb)" height="30.2969" style="stroke:#A80036;stroke-width:1.5;" width="79" x="460.5" y="395.4453"/><text fill="#000000" font-family="sans-serif" font-size="14" lengthAdjust="spacing" textLength="65" x="467.5" y="415.4404">Algorithm</text><rect fill="#FEFECE" filter="url(#f1xyx6r0nts1zb)" height="30.2969" style="stroke:#A80036;stroke-width:1.5;" width="34" x="562" y="39.9531"/><text fill="#000000" font-family="sans-serif" font-size="14" lengthAdjust="spacing" textLength="20" x="569" y="59.9482">DS</text><rect fill="#FEFECE" filter="url(#f1xyx6r0nts1zb)" height="30.2969" style="stroke:#A80036;stroke-width:1.5;" width="34" x="562" y="395.4453"/><text fill="#000000" font-family="sans-serif" font-size="14" lengthAdjust="spacing" textLength="20" x="569" y="415.4404">DS</text><polygon fill="#A80036" points="317,102.3828,327,106.3828,317,110.3828,321,106.3828" style="stroke:#A80036;stroke-width:1.0;"/><line style="stroke:#A80036;stroke-width:1.0;stroke-dasharray:2.0,2.0;" x1="29" x2="323" y1="106.3828" y2="106.3828"/><text fill="#000000" font-family="sans-serif" font-size="13" lengthAdjust="spacing" textLength="276" x="36" y="101.3169">WPS Request specifying process and inputs</text><line style="stroke:#A80036;stroke-width:1.0;" x1="329" x2="371" y1="135.5156" y2="135.5156"/><line style="stroke:#A80036;stroke-width:1.0;" x1="371" x2="371" y1="135.5156" y2="148.5156"/><line style="stroke:#A80036;stroke-width:1.0;" x1="330" x2="371" y1="148.5156" y2="148.5156"/><polygon fill="#A80036" points="340,144.5156,330,148.5156,340,152.5156,336,148.5156" style="stroke:#A80036;stroke-width:1.0;"/><text fill="#000000" font-family="sans-serif" font-size="13" lengthAdjust="spacing" textLength="86" x="336" y="130.4497">Data stage in</text><polygon fill="#A80036" points="490,173.6484,500,177.6484,490,181.6484,494,177.6484" style="stroke:#A80036;stroke-width:1.0;"/><line style="stroke:#A80036;stroke-width:1.0;stroke-dasharray:2.0,2.0;" x1="329" x2="496" y1="177.6484" y2="177.6484"/><text fill="#000000" font-family="sans-serif" font-size="13" lengthAdjust="spacing" textLength="117" x="336" y="172.5825">Execute Algorithm</text><line style="stroke:#A80036;stroke-width:1.0;" x1="502" x2="544" y1="206.7813" y2="206.7813"/><line style="stroke:#A80036;stroke-width:1.0;" x1="544" x2="544" y1="206.7813" y2="219.7813"/><line style="stroke:#A80036;stroke-width:1.0;" x1="503" x2="544" y1="219.7813" y2="219.7813"/><polygon fill="#A80036" points="513,215.7813,503,219.7813,513,223.7813,509,219.7813" style="stroke:#A80036;stroke-width:1.0;"/><text fill="#000000" font-family="sans-serif" font-size="13" lengthAdjust="spacing" textLength="65" x="509" y="201.7153">processes</text><polygon fill="#A80036" points="340,244.9141,330,248.9141,340,252.9141,336,248.9141" style="stroke:#A80036;stroke-width:1.0;"/><line style="stroke:#A80036;stroke-width:1.0;stroke-dasharray:2.0,2.0;" x1="334" x2="501" y1="248.9141" y2="248.9141"/><text fill="#000000" font-family="sans-serif" font-size="13" lengthAdjust="spacing" textLength="149" x="346" y="243.8481">Return from Processing</text><line style="stroke:#A80036;stroke-width:1.0;" x1="329" x2="371" y1="278.0469" y2="278.0469"/><line style="stroke:#A80036;stroke-width:1.0;" x1="371" x2="371" y1="278.0469" y2="291.0469"/><line style="stroke:#A80036;stroke-width:1.0;" x1="330" x2="371" y1="291.0469" y2="291.0469"/><polygon fill="#A80036" points="340,287.0469,330,291.0469,340,295.0469,336,291.0469" style="stroke:#A80036;stroke-width:1.0;"/><text fill="#000000" font-family="sans-serif" font-size="13" lengthAdjust="spacing" textLength="96" x="336" y="272.981">Data stage out</text><polygon fill="#A80036" points="569,316.1797,579,320.1797,569,324.1797,573,320.1797" style="stroke:#A80036;stroke-width:1.0;"/><line style="stroke:#A80036;stroke-width:1.0;" x1="329" x2="575" y1="320.1797" y2="320.1797"/><text fill="#000000" font-family="sans-serif" font-size="13" lengthAdjust="spacing" textLength="214" x="336" y="315.1138">Register Data [CNM, Provenance]</text><polygon fill="#A80036" points="317,345.3125,327,349.3125,317,353.3125,321,349.3125" style="stroke:#A80036;stroke-width:1.0;"/><line style="stroke:#A80036;stroke-width:1.0;" x1="29" x2="323" y1="349.3125" y2="349.3125"/><text fill="#000000" font-family="sans-serif" font-size="13" lengthAdjust="spacing" textLength="42" x="36" y="344.2466">Status</text><polygon fill="#A80036" points="40,374.4453,30,378.4453,40,382.4453,36,378.4453" style="stroke:#A80036;stroke-width:1.0;"/><line style="stroke:#A80036;stroke-width:1.0;" x1="34" x2="328" y1="378.4453" y2="378.4453"/><text fill="#000000" font-family="sans-serif" font-size="13" lengthAdjust="spacing" textLength="85" x="46" y="373.3794">Job Response</text><!--MD5=[77b501a0e53e61f6ef450e6251baa08c]
@startuml
title ADES process Overview

EMS - -> ADES: WPS Request specifying process and inputs
ADES -> ADES: Data stage in
ADES - -> Algorithm: Execute Algorithm
Algorithm -> Algorithm: processes
Algorithm - -> ADES: Return from Processing
ADES -> ADES: Data stage out
ADES -> DS:  Register Data [CNM, Provenance]

EMS -> ADES: Status
ADES -> EMS: Job Response


@enduml

PlantUML version 1.2021.12(Tue Oct 05 16:01:58 GMT 2021)
(GPL source distribution)
Java Runtime: OpenJDK Runtime Environment
JVM: OpenJDK 64-Bit Server VM
Default Encoding: UTF-8
Language: en
Country: US
--></g></svg>