<?xml version="1.0" encoding="UTF-8" standalone="no"?><svg xmlns="http://www.w3.org/2000/svg" xmlns:xlink="http://www.w3.org/1999/xlink" contentStyleType="text/css" height="430px" preserveAspectRatio="none" style="width:602px;height:430px;background:#FFFFFF;" version="1.1" viewBox="0 0 602 430" width="602px" zoomAndPan="magnify"><defs/><g><rect height="26.2969" style="stroke:#00000000;stroke-width:1.0;fill:none;" width="200" x="200" y="10"/><text fill="#000000" font-family="sans-serif" font-size="14" font-weight="bold" lengthAdjust="spacing" textLength="190" x="205" y="27.9951">ADES process Overview</text><line style="stroke:#181818;stroke-width:0.5;stroke-dasharray:5.0,5.0;" x1="27" x2="27" y1="73.5938" y2="394.7891"/><line style="stroke:#181818;stroke-width:0.5;stroke-dasharray:5.0,5.0;" x1="327" x2="327" y1="73.5938" y2="394.7891"/><line style="stroke:#181818;stroke-width:0.5;stroke-dasharray:5.0,5.0;" x1="499.5" x2="499.5" y1="73.5938" y2="394.7891"/><line style="stroke:#181818;stroke-width:0.5;stroke-dasharray:5.0,5.0;" x1="579" x2="579" y1="73.5938" y2="394.7891"/><rect fill="#E2E2F0" height="30.2969" rx="2.5" ry="2.5" style="stroke:#181818;stroke-width:0.5;" width="44" x="5" y="42.2969"/><text fill="#000000" font-family="sans-serif" font-size="14" lengthAdjust="spacing" textLength="30" x="12" y="62.292">EMS</text><rect fill="#E2E2F0" height="30.2969" rx="2.5" ry="2.5" style="stroke:#181818;stroke-width:0.5;" width="44" x="5" y="393.7891"/><text fill="#000000" font-family="sans-serif" font-size="14" lengthAdjust="spacing" textLength="30" x="12" y="413.7842">EMS</text><rect fill="#E2E2F0" height="30.2969" rx="2.5" ry="2.5" style="stroke:#181818;stroke-width:0.5;" width="52" x="301" y="42.2969"/><text fill="#000000" font-family="sans-serif" font-size="14" lengthAdjust="spacing" textLength="38" x="308" y="62.292">ADES</text><rect fill="#E2E2F0" height="30.2969" rx="2.5" ry="2.5" style="stroke:#181818;stroke-width:0.5;" width="52" x="301" y="393.7891"/><text fill="#000000" font-family="sans-serif" font-size="14" lengthAdjust="spacing" textLength="38" x="308" y="413.7842">ADES</text><rect fill="#E2E2F0" height="30.2969" rx="2.5" ry="2.5" style="stroke:#181818;stroke-width:0.5;" width="79" x="460.5" y="42.2969"/><text fill="#000000" font-family="sans-serif" font-size="14" lengthAdjust="spacing" textLength="65" x="467.5" y="62.292">Algorithm</text><rect fill="#E2E2F0" height="30.2969" rx="2.5" ry="2.5" style="stroke:#181818;stroke-width:0.5;" width="79" x="460.5" y="393.7891"/><text fill="#000000" font-family="sans-serif" font-size="14" lengthAdjust="spacing" textLength="65" x="467.5" y="413.7842">Algorithm</text><rect fill="#E2E2F0" height="30.2969" rx="2.5" ry="2.5" style="stroke:#181818;stroke-width:0.5;" width="34" x="562" y="42.2969"/><text fill="#000000" font-family="sans-serif" font-size="14" lengthAdjust="spacing" textLength="20" x="569" y="62.292">DS</text><rect fill="#E2E2F0" height="30.2969" rx="2.5" ry="2.5" style="stroke:#181818;stroke-width:0.5;" width="34" x="562" y="393.7891"/><text fill="#000000" font-family="sans-serif" font-size="14" lengthAdjust="spacing" textLength="20" x="569" y="413.7842">DS</text><polygon fill="#181818" points="315,100.7266,325,104.7266,315,108.7266,319,104.7266" style="stroke:#181818;stroke-width:1.0;"/><line style="stroke:#181818;stroke-width:1.0;stroke-dasharray:2.0,2.0;" x1="27" x2="321" y1="104.7266" y2="104.7266"/><text fill="#000000" font-family="sans-serif" font-size="13" lengthAdjust="spacing" textLength="276" x="34" y="99.6606">WPS Request specifying process and inputs</text><line style="stroke:#181818;stroke-width:1.0;" x1="327" x2="369" y1="133.8594" y2="133.8594"/><line style="stroke:#181818;stroke-width:1.0;" x1="369" x2="369" y1="133.8594" y2="146.8594"/><line style="stroke:#181818;stroke-width:1.0;" x1="328" x2="369" y1="146.8594" y2="146.8594"/><polygon fill="#181818" points="338,142.8594,328,146.8594,338,150.8594,334,146.8594" style="stroke:#181818;stroke-width:1.0;"/><text fill="#000000" font-family="sans-serif" font-size="13" lengthAdjust="spacing" textLength="86" x="334" y="128.7935">Data stage in</text><polygon fill="#181818" points="488,171.9922,498,175.9922,488,179.9922,492,175.9922" style="stroke:#181818;stroke-width:1.0;"/><line style="stroke:#181818;stroke-width:1.0;stroke-dasharray:2.0,2.0;" x1="327" x2="494" y1="175.9922" y2="175.9922"/><text fill="#000000" font-family="sans-serif" font-size="13" lengthAdjust="spacing" textLength="117" x="334" y="170.9263">Execute Algorithm</text><line style="stroke:#181818;stroke-width:1.0;" x1="500" x2="542" y1="205.125" y2="205.125"/><line style="stroke:#181818;stroke-width:1.0;" x1="542" x2="542" y1="205.125" y2="218.125"/><line style="stroke:#181818;stroke-width:1.0;" x1="501" x2="542" y1="218.125" y2="218.125"/><polygon fill="#181818" points="511,214.125,501,218.125,511,222.125,507,218.125" style="stroke:#181818;stroke-width:1.0;"/><text fill="#000000" font-family="sans-serif" font-size="13" lengthAdjust="spacing" textLength="65" x="507" y="200.0591">processes</text><polygon fill="#181818" points="338,243.2578,328,247.2578,338,251.2578,334,247.2578" style="stroke:#181818;stroke-width:1.0;"/><line style="stroke:#181818;stroke-width:1.0;stroke-dasharray:2.0,2.0;" x1="332" x2="499" y1="247.2578" y2="247.2578"/><text fill="#000000" font-family="sans-serif" font-size="13" lengthAdjust="spacing" textLength="149" x="344" y="242.1919">Return from Processing</text><line style="stroke:#181818;stroke-width:1.0;" x1="327" x2="369" y1="276.3906" y2="276.3906"/><line style="stroke:#181818;stroke-width:1.0;" x1="369" x2="369" y1="276.3906" y2="289.3906"/><line style="stroke:#181818;stroke-width:1.0;" x1="328" x2="369" y1="289.3906" y2="289.3906"/><polygon fill="#181818" points="338,285.3906,328,289.3906,338,293.3906,334,289.3906" style="stroke:#181818;stroke-width:1.0;"/><text fill="#000000" font-family="sans-serif" font-size="13" lengthAdjust="spacing" textLength="96" x="334" y="271.3247">Data stage out</text><polygon fill="#181818" points="567,314.5234,577,318.5234,567,322.5234,571,318.5234" style="stroke:#181818;stroke-width:1.0;"/><line style="stroke:#181818;stroke-width:1.0;" x1="327" x2="573" y1="318.5234" y2="318.5234"/><text fill="#000000" font-family="sans-serif" font-size="13" lengthAdjust="spacing" textLength="214" x="334" y="313.4575">Register Data [CNM, Provenance]</text><polygon fill="#181818" points="315,343.6563,325,347.6563,315,351.6563,319,347.6563" style="stroke:#181818;stroke-width:1.0;"/><line style="stroke:#181818;stroke-width:1.0;" x1="27" x2="321" y1="347.6563" y2="347.6563"/><text fill="#000000" font-family="sans-serif" font-size="13" lengthAdjust="spacing" textLength="42" x="34" y="342.5903">Status</text><polygon fill="#181818" points="38,372.7891,28,376.7891,38,380.7891,34,376.7891" style="stroke:#181818;stroke-width:1.0;"/><line style="stroke:#181818;stroke-width:1.0;" x1="32" x2="326" y1="376.7891" y2="376.7891"/><text fill="#000000" font-family="sans-serif" font-size="13" lengthAdjust="spacing" textLength="85" x="44" y="371.7231">Job Response</text><!--MD5=[f3c32837d6e0a0b740527ad129f96b55]
@startuml
title ADES process Overview

EMS - -> ADES: WPS Request specifying process and inputs
ADES -> ADES: Data stage in
ADES - -> Algorithm: Execute Algorithm
Algorithm -> Algorithm: processes
Algorithm - -> ADES: Return from Processing
ADES -> ADES: Data stage out
ADES -> DS:  Register Data [CNM, Provenance]

EMS -> ADES: Status
ADES -> EMS: Job Response


@enduml

PlantUML version 1.2022.3(Tue Mar 29 16:10:57 GMT 2022)
(GPL source distribution)
Java Runtime: OpenJDK Runtime Environment
JVM: OpenJDK 64-Bit Server VM
Default Encoding: UTF-8
Language: en
Country: US
--></g></svg>