<?xml version="1.0" encoding="UTF-8" standalone="no"?><svg xmlns="http://www.w3.org/2000/svg" xmlns:xlink="http://www.w3.org/1999/xlink" contentStyleType="text/css" height="600px" preserveAspectRatio="none" style="width:599px;height:600px;background:#FFFFFF;" version="1.1" viewBox="0 0 599 600" width="599px" zoomAndPan="magnify"><defs/><g><rect height="26.2969" style="stroke:#00000000;stroke-width:1.0;fill:none;" width="168" x="214" y="15"/><text fill="#000000" font-family="sans-serif" font-size="14" font-weight="bold" lengthAdjust="spacing" textLength="158" x="219" y="32.9951">Algorithm Execution</text><path d="M252,47.2969 L252,75.9961 L232,79.9961 L252,83.9961 L252,112.6953 A0,0 0 0 0 252,112.6953 L521,112.6953 A0,0 0 0 0 521,112.6953 L521,57.2969 L511,47.2969 L252,47.2969 A0,0 0 0 0 252,47.2969 " fill="#FEFFDD" style="stroke:#181818;stroke-width:0.5;"/><path d="M511,47.2969 L511,57.2969 L521,57.2969 L511,47.2969 " fill="#FEFFDD" style="stroke:#181818;stroke-width:0.5;"/><text fill="#000000" font-family="sans-serif" font-size="13" font-weight="bold" lengthAdjust="spacing" textLength="154" x="258" y="64.3638">data stagein Volume</text><text fill="#000000" font-family="sans-serif" font-size="13" lengthAdjust="spacing" textLength="90" x="416" y="64.3638">and input.json</text><line style="stroke:#181818;stroke-width:1.0;" x1="252" x2="521" y1="72.4297" y2="72.4297"/><line style="stroke:#181818;stroke-width:1.0;" x1="252" x2="521" y1="74.4297" y2="74.4297"/><text fill="#000000" font-family="sans-serif" font-size="13" lengthAdjust="spacing" textLength="73" x="258" y="89.4966">files staged</text><text fill="#000000" font-family="sans-serif" font-size="13" lengthAdjust="spacing" textLength="173" x="258" y="104.6294">top level STAC catalog.json</text><ellipse cx="222" cy="79.9961" fill="#222222" rx="10" ry="10" style="stroke:#222222;stroke-width:1.0;"/><rect fill="none" height="190.2031" style="stroke:#000000;stroke-width:1.5;" width="422" x="11" y="122.6953"/><path d="M130,122.6953 L130,131.9922 L120,141.9922 L11,141.9922 " fill="none" style="stroke:#000000;stroke-width:1.5;"/><text fill="#000000" font-family="sans-serif" font-size="14" lengthAdjust="spacing" textLength="109" x="14" y="136.6904">Input Processor</text><rect fill="#F1F1F1" height="33.9688" rx="12.5" ry="12.5" style="stroke:#181818;stroke-width:0.5;" width="136" x="154" y="158.9922"/><text fill="#000000" font-family="sans-serif" font-size="12" lengthAdjust="spacing" textLength="116" x="164" y="180.1309">read STAC Catalog</text><rect fill="#F1F1F1" height="33.9688" rx="12.5" ry="12.5" style="stroke:#181818;stroke-width:0.5;" width="367" x="38.5" y="212.9609"/><text fill="#000000" font-family="sans-serif" font-size="12" lengthAdjust="spacing" textLength="347" x="48.5" y="234.0996">map inputs to command line or configuration based file</text><rect fill="#F1F1F1" height="33.9688" rx="12.5" ry="12.5" style="stroke:#181818;stroke-width:0.5;" width="402" x="21" y="266.9297"/><text fill="#000000" font-family="sans-serif" font-size="12" lengthAdjust="spacing" textLength="382" x="31" y="288.0684">create algorithm execution 'command' with input parameters</text><rect fill="#F1F1F1" height="33.9688" rx="12.5" ry="12.5" style="stroke:#181818;stroke-width:0.5;" width="144" x="150" y="332.8984"/><text fill="#000000" font-family="sans-serif" font-size="12" lengthAdjust="spacing" textLength="124" x="160" y="354.0371">Algorithm execution</text><rect fill="none" height="136.2344" style="stroke:#000000;stroke-width:1.5;" width="407" x="18.5" y="376.8672"/><path d="M150.5,376.8672 L150.5,386.1641 L140.5,396.1641 L18.5,396.1641 " fill="none" style="stroke:#000000;stroke-width:1.5;"/><text fill="#000000" font-family="sans-serif" font-size="14" lengthAdjust="spacing" textLength="122" x="21.5" y="390.8623">Output Processor</text><rect fill="#F1F1F1" height="33.9688" rx="12.5" ry="12.5" style="stroke:#181818;stroke-width:0.5;" width="387" x="28.5" y="413.1641"/><text fill="#000000" font-family="sans-serif" font-size="12" lengthAdjust="spacing" textLength="367" x="38.5" y="434.3027">Generate stac items/document for each file in output path</text><rect fill="#F1F1F1" height="33.9688" rx="12.5" ry="12.5" style="stroke:#181818;stroke-width:0.5;" width="191" x="126.5" y="467.1328"/><text fill="#000000" font-family="sans-serif" font-size="12" lengthAdjust="spacing" textLength="171" x="136.5" y="488.2715">Generate stac catalog.json</text><path d="M253,523.1016 L253,551.8008 L233,555.8008 L253,559.8008 L253,588.5 A0,0 0 0 0 253,588.5 L587,588.5 A0,0 0 0 0 587,588.5 L587,533.1016 L577,523.1016 L253,523.1016 A0,0 0 0 0 253,523.1016 " fill="#FEFFDD" style="stroke:#181818;stroke-width:0.5;"/><path d="M577,523.1016 L577,533.1016 L587,533.1016 L577,523.1016 " fill="#FEFFDD" style="stroke:#181818;stroke-width:0.5;"/><text fill="#000000" font-family="sans-serif" font-size="13" lengthAdjust="spacing" textLength="149" x="259" y="540.1685">Data StageOut Volume</text><text fill="#000000" font-family="sans-serif" font-size="13" lengthAdjust="spacing" textLength="195" x="259" y="555.3013">+ Catalog.json (STAC Catalog)</text><line style="stroke:#181818;stroke-width:1.0;" x1="253" x2="587" y1="563.3672" y2="563.3672"/><line style="stroke:#181818;stroke-width:1.0;" x1="253" x2="587" y1="565.3672" y2="565.3672"/><text fill="#000000" font-family="sans-serif" font-size="13" lengthAdjust="spacing" textLength="313" x="259" y="580.4341">File organized in out folder with STAC Documents</text><ellipse cx="222" cy="555.8008" rx="11" ry="11" style="stroke:#222222;stroke-width:1.0;fill:none;"/><ellipse cx="222" cy="555.8008" fill="#222222" rx="6" ry="6" style="stroke:#111111;stroke-width:1.0;"/><line style="stroke:#181818;stroke-width:1.0;" x1="222" x2="222" y1="192.9609" y2="212.9609"/><polygon fill="#181818" points="218,202.9609,222,212.9609,226,202.9609,222,206.9609" style="stroke:#181818;stroke-width:1.0;"/><line style="stroke:#181818;stroke-width:1.0;" x1="222" x2="222" y1="246.9297" y2="266.9297"/><polygon fill="#181818" points="218,256.9297,222,266.9297,226,256.9297,222,260.9297" style="stroke:#181818;stroke-width:1.0;"/><line style="stroke:#181818;stroke-width:1.0;" x1="222" x2="222" y1="89.9961" y2="158.9922"/><polygon fill="#181818" points="218,148.9922,222,158.9922,226,148.9922,222,152.9922" style="stroke:#181818;stroke-width:1.0;"/><line style="stroke:#181818;stroke-width:1.0;" x1="222" x2="222" y1="300.8984" y2="332.8984"/><polygon fill="#181818" points="218,322.8984,222,332.8984,226,322.8984,222,326.8984" style="stroke:#181818;stroke-width:1.0;"/><line style="stroke:#181818;stroke-width:1.0;" x1="222" x2="222" y1="447.1328" y2="467.1328"/><polygon fill="#181818" points="218,457.1328,222,467.1328,226,457.1328,222,461.1328" style="stroke:#181818;stroke-width:1.0;"/><line style="stroke:#181818;stroke-width:1.0;" x1="222" x2="222" y1="366.8672" y2="413.1641"/><polygon fill="#181818" points="218,403.1641,222,413.1641,226,403.1641,222,407.1641" style="stroke:#181818;stroke-width:1.0;"/><line style="stroke:#181818;stroke-width:1.0;" x1="222" x2="222" y1="501.1016" y2="544.8008"/><polygon fill="#181818" points="218,534.8008,222,544.8008,226,534.8008,222,538.8008" style="stroke:#181818;stroke-width:1.0;"/><!--MD5=[53f1cc74c00e386495f493006dc7568f]
@startuml
title Algorithm Execution

start
note right
  **data stagein Volume** and input.json
  ====
  files staged
  top level STAC catalog.json
end note

partition "Input Processor" {
  :read STAC Catalog;
  :map inputs to command line or configuration based file;
  :create algorithm execution 'command' with input parameters;
}

:Algorithm execution;

partition "Output Processor" {
    :Generate stac items/document for each file in output path;
    :Generate stac catalog.json;
}

stop
note right
  Data StageOut Volume
  + Catalog.json (STAC Catalog)
  ====
  File organized in out folder with STAC Documents
end note



@enduml

PlantUML version 1.2022.3(Tue Mar 29 16:10:57 GMT 2022)
(GPL source distribution)
Java Runtime: OpenJDK Runtime Environment
JVM: OpenJDK 64-Bit Server VM
Default Encoding: UTF-8
Language: en
Country: US
--></g></svg>