<?xml version="1.0" encoding="UTF-8" standalone="no"?><svg xmlns="http://www.w3.org/2000/svg" xmlns:xlink="http://www.w3.org/1999/xlink" contentScriptType="application/ecmascript" contentStyleType="text/css" height="584px" preserveAspectRatio="none" style="width:599px;height:584px;background:#FFFFFF;" version="1.1" viewBox="0 0 599 584" width="599px" zoomAndPan="magnify"><defs><filter height="300%" id="f1bdai65kn8zej" width="300%" x="-1" y="-1"><feGaussianBlur result="blurOut" stdDeviation="2.0"/><feColorMatrix in="blurOut" result="blurOut2" type="matrix" values="0 0 0 0 0 0 0 0 0 0 0 0 0 0 0 0 0 0 .4 0"/><feOffset dx="4.0" dy="4.0" in="blurOut2" result="blurOut3"/><feBlend in="SourceGraphic" in2="blurOut3" mode="normal"/></filter></defs><g><text fill="#000000" font-family="sans-serif" font-size="18" lengthAdjust="spacing" textLength="180" x="208.5" y="26.708">Algorithm Execution</text><path d="M252,30.9531 L252,59.6523 L232,63.6523 L252,67.6523 L252,96.3516 A0,0 0 0 0 252,96.3516 L521,96.3516 A0,0 0 0 0 521,96.3516 L521,40.9531 L511,30.9531 L252,30.9531 A0,0 0 0 0 252,30.9531 " fill="#FBFB77" filter="url(#f1bdai65kn8zej)" style="stroke:#A80036;stroke-width:1.0;"/><path d="M511,30.9531 L511,40.9531 L521,40.9531 L511,30.9531 " fill="#FBFB77" style="stroke:#A80036;stroke-width:1.0;"/><text fill="#000000" font-family="sans-serif" font-size="13" font-weight="bold" lengthAdjust="spacing" textLength="154" x="258" y="48.02">data stagein Volume</text><text fill="#000000" font-family="sans-serif" font-size="13" lengthAdjust="spacing" textLength="90" x="416" y="48.02">and input.json</text><line style="stroke:#A80036;stroke-width:1.0;" x1="252" x2="521" y1="56.0859" y2="56.0859"/><line style="stroke:#A80036;stroke-width:1.0;" x1="252" x2="521" y1="58.0859" y2="58.0859"/><text fill="#000000" font-family="sans-serif" font-size="13" lengthAdjust="spacing" textLength="73" x="258" y="73.1528">files staged</text><text fill="#000000" font-family="sans-serif" font-size="13" lengthAdjust="spacing" textLength="173" x="258" y="88.2856">top level STAC catalog.json</text><ellipse cx="222" cy="63.6523" fill="#000000" filter="url(#f1bdai65kn8zej)" rx="10" ry="10" style="stroke:none;stroke-width:1.0;"/><rect fill="#FFFFFF" filter="url(#f1bdai65kn8zej)" height="190.2031" style="stroke:#000000;stroke-width:2.0;" width="422" x="11" y="106.3516"/><path d="M130,106.3516 L130,115.6484 L120,125.6484 L11,125.6484 " fill="none" style="stroke:#000000;stroke-width:2.0;"/><text fill="#000000" font-family="sans-serif" font-size="14" lengthAdjust="spacing" textLength="109" x="14" y="120.3467">Input Processor</text><rect fill="#FEFECE" filter="url(#f1bdai65kn8zej)" height="33.9688" rx="12.5" ry="12.5" style="stroke:#A80036;stroke-width:1.5;" width="136" x="154" y="142.6484"/><text fill="#000000" font-family="sans-serif" font-size="12" lengthAdjust="spacing" textLength="116" x="164" y="163.7871">read STAC Catalog</text><rect fill="#FEFECE" filter="url(#f1bdai65kn8zej)" height="33.9688" rx="12.5" ry="12.5" style="stroke:#A80036;stroke-width:1.5;" width="367" x="38.5" y="196.6172"/><text fill="#000000" font-family="sans-serif" font-size="12" lengthAdjust="spacing" textLength="347" x="48.5" y="217.7559">map inputs to command line or configuration based file</text><rect fill="#FEFECE" filter="url(#f1bdai65kn8zej)" height="33.9688" rx="12.5" ry="12.5" style="stroke:#A80036;stroke-width:1.5;" width="402" x="21" y="250.5859"/><text fill="#000000" font-family="sans-serif" font-size="12" lengthAdjust="spacing" textLength="382" x="31" y="271.7246">create algorithm execution 'command' with input parameters</text><rect fill="#FEFECE" filter="url(#f1bdai65kn8zej)" height="33.9688" rx="12.5" ry="12.5" style="stroke:#A80036;stroke-width:1.5;" width="144" x="150" y="316.5547"/><text fill="#000000" font-family="sans-serif" font-size="12" lengthAdjust="spacing" textLength="124" x="160" y="337.6934">Algorithm execution</text><rect fill="#FFFFFF" filter="url(#f1bdai65kn8zej)" height="136.2344" style="stroke:#000000;stroke-width:2.0;" width="407" x="18.5" y="360.5234"/><path d="M150.5,360.5234 L150.5,369.8203 L140.5,379.8203 L18.5,379.8203 " fill="none" style="stroke:#000000;stroke-width:2.0;"/><text fill="#000000" font-family="sans-serif" font-size="14" lengthAdjust="spacing" textLength="122" x="21.5" y="374.5186">Output Processor</text><rect fill="#FEFECE" filter="url(#f1bdai65kn8zej)" height="33.9688" rx="12.5" ry="12.5" style="stroke:#A80036;stroke-width:1.5;" width="387" x="28.5" y="396.8203"/><text fill="#000000" font-family="sans-serif" font-size="12" lengthAdjust="spacing" textLength="367" x="38.5" y="417.959">Generate stac items/document for each file in output path</text><rect fill="#FEFECE" filter="url(#f1bdai65kn8zej)" height="33.9688" rx="12.5" ry="12.5" style="stroke:#A80036;stroke-width:1.5;" width="191" x="126.5" y="450.7891"/><text fill="#000000" font-family="sans-serif" font-size="12" lengthAdjust="spacing" textLength="171" x="136.5" y="471.9277">Generate stac catalog.json</text><path d="M253,506.7578 L253,535.457 L233,539.457 L253,543.457 L253,572.1563 A0,0 0 0 0 253,572.1563 L587,572.1563 A0,0 0 0 0 587,572.1563 L587,516.7578 L577,506.7578 L253,506.7578 A0,0 0 0 0 253,506.7578 " fill="#FBFB77" filter="url(#f1bdai65kn8zej)" style="stroke:#A80036;stroke-width:1.0;"/><path d="M577,506.7578 L577,516.7578 L587,516.7578 L577,506.7578 " fill="#FBFB77" style="stroke:#A80036;stroke-width:1.0;"/><text fill="#000000" font-family="sans-serif" font-size="13" lengthAdjust="spacing" textLength="149" x="259" y="523.8247">Data StageOut Volume</text><text fill="#000000" font-family="sans-serif" font-size="13" lengthAdjust="spacing" textLength="195" x="259" y="538.9575">+ Catalog.json (STAC Catalog)</text><line style="stroke:#A80036;stroke-width:1.0;" x1="253" x2="587" y1="547.0234" y2="547.0234"/><line style="stroke:#A80036;stroke-width:1.0;" x1="253" x2="587" y1="549.0234" y2="549.0234"/><text fill="#000000" font-family="sans-serif" font-size="13" lengthAdjust="spacing" textLength="313" x="259" y="564.0903">File organized in out folder with STAC Documents</text><ellipse cx="222" cy="539.457" fill="#FFFFFF" filter="url(#f1bdai65kn8zej)" rx="11" ry="11" style="stroke:#000000;stroke-width:1.0;"/><ellipse cx="222" cy="539.457" fill="#000000" rx="6" ry="6" style="stroke:#7F7F7F;stroke-width:1.0;"/><line style="stroke:#A80036;stroke-width:1.5;" x1="222" x2="222" y1="176.6172" y2="196.6172"/><polygon fill="#A80036" points="218,186.6172,222,196.6172,226,186.6172,222,190.6172" style="stroke:#A80036;stroke-width:1.0;"/><line style="stroke:#A80036;stroke-width:1.5;" x1="222" x2="222" y1="230.5859" y2="250.5859"/><polygon fill="#A80036" points="218,240.5859,222,250.5859,226,240.5859,222,244.5859" style="stroke:#A80036;stroke-width:1.0;"/><line style="stroke:#A80036;stroke-width:1.5;" x1="222" x2="222" y1="73.6523" y2="142.6484"/><polygon fill="#A80036" points="218,132.6484,222,142.6484,226,132.6484,222,136.6484" style="stroke:#A80036;stroke-width:1.0;"/><line style="stroke:#A80036;stroke-width:1.5;" x1="222" x2="222" y1="284.5547" y2="316.5547"/><polygon fill="#A80036" points="218,306.5547,222,316.5547,226,306.5547,222,310.5547" style="stroke:#A80036;stroke-width:1.0;"/><line style="stroke:#A80036;stroke-width:1.5;" x1="222" x2="222" y1="430.7891" y2="450.7891"/><polygon fill="#A80036" points="218,440.7891,222,450.7891,226,440.7891,222,444.7891" style="stroke:#A80036;stroke-width:1.0;"/><line style="stroke:#A80036;stroke-width:1.5;" x1="222" x2="222" y1="350.5234" y2="396.8203"/><polygon fill="#A80036" points="218,386.8203,222,396.8203,226,386.8203,222,390.8203" style="stroke:#A80036;stroke-width:1.0;"/><line style="stroke:#A80036;stroke-width:1.5;" x1="222" x2="222" y1="484.7578" y2="528.457"/><polygon fill="#A80036" points="218,518.457,222,528.457,226,518.457,222,522.457" style="stroke:#A80036;stroke-width:1.0;"/><!--MD5=[dd5a78cb8bca481c384861fe68ca1bd9]
@startuml
title Algorithm Execution

start
note right
  **data stagein Volume** and input.json
  ====
  files staged
  top level STAC catalog.json
end note

partition "Input Processor" {
  :read STAC Catalog;
  :map inputs to command line or configuration based file;
  :create algorithm execution 'command' with input parameters;
}

:Algorithm execution;

partition "Output Processor" {
    :Generate stac items/document for each file in output path;
    :Generate stac catalog.json;
}

stop
note right
  Data StageOut Volume
  + Catalog.json (STAC Catalog)
  ====
  File organized in out folder with STAC Documents
end note



@enduml

PlantUML version 1.2021.12(Tue Oct 05 16:01:58 GMT 2021)
(GPL source distribution)
Java Runtime: OpenJDK Runtime Environment
JVM: OpenJDK 64-Bit Server VM
Default Encoding: UTF-8
Language: en
Country: US
--></g></svg>