<?xml version="1.0" encoding="UTF-8" standalone="no"?><svg xmlns="http://www.w3.org/2000/svg" xmlns:xlink="http://www.w3.org/1999/xlink" contentScriptType="application/ecmascript" contentStyleType="text/css" height="558px" preserveAspectRatio="none" style="width:602px;height:558px;background:#FFFFFF;" version="1.1" viewBox="0 0 602 558" width="602px" zoomAndPan="magnify"><defs><filter height="300%" id="ftft05rd611gx" width="300%" x="-1" y="-1"><feGaussianBlur result="blurOut" stdDeviation="2.0"/><feColorMatrix in="blurOut" result="blurOut2" type="matrix" values="0 0 0 0 0 0 0 0 0 0 0 0 0 0 0 0 0 0 .4 0"/><feOffset dx="4.0" dy="4.0" in="blurOut2" result="blurOut3"/><feBlend in="SourceGraphic" in2="blurOut3" mode="normal"/></filter></defs><g><text fill="#000000" font-family="sans-serif" font-size="18" lengthAdjust="spacing" textLength="189" x="205.75" y="26.708">ADES Data Stage Out</text><path d="M226,30.9531 L226,59.6523 L206,63.6523 L226,67.6523 L226,96.3516 A0,0 0 0 0 226,96.3516 L560,96.3516 A0,0 0 0 0 560,96.3516 L560,40.9531 L550,30.9531 L226,30.9531 A0,0 0 0 0 226,30.9531 " fill="#FBFB77" filter="url(#ftft05rd611gx)" style="stroke:#A80036;stroke-width:1.0;"/><path d="M550,30.9531 L550,40.9531 L560,40.9531 L550,30.9531 " fill="#FBFB77" style="stroke:#A80036;stroke-width:1.0;"/><text fill="#000000" font-family="sans-serif" font-size="13" lengthAdjust="spacing" textLength="149" x="232" y="48.02">Data StageOut Volume</text><text fill="#000000" font-family="sans-serif" font-size="13" lengthAdjust="spacing" textLength="195" x="232" y="63.1528">+ Catalog.json (STAC Catalog)</text><line style="stroke:#A80036;stroke-width:1.0;" x1="226" x2="560" y1="71.2188" y2="71.2188"/><line style="stroke:#A80036;stroke-width:1.0;" x1="226" x2="560" y1="73.2188" y2="73.2188"/><text fill="#000000" font-family="sans-serif" font-size="13" lengthAdjust="spacing" textLength="313" x="232" y="88.2856">File organized in out folder with STAC Documents</text><ellipse cx="196" cy="63.6523" fill="#000000" filter="url(#ftft05rd611gx)" rx="10" ry="10" style="stroke:none;stroke-width:1.0;"/><rect fill="#FFFFFF" filter="url(#ftft05rd611gx)" height="172.3203" style="stroke:#000000;stroke-width:2.0;" width="516" x="11" y="160.3203"/><path d="M207,160.3203 L207,169.6172 L197,179.6172 L11,179.6172 " fill="none" style="stroke:#000000;stroke-width:2.0;"/><text fill="#000000" font-family="sans-serif" font-size="14" lengthAdjust="spacing" textLength="186" x="14" y="174.3154">Resource Shipping Module</text><path d="M322,202.4375 L322,223.5703 L302,227.5703 L322,231.5703 L322,252.7031 A0,0 0 0 0 322,252.7031 L517,252.7031 A0,0 0 0 0 517,252.7031 L517,212.4375 L507,202.4375 L322,202.4375 A0,0 0 0 0 322,202.4375 " fill="#FBFB77" filter="url(#ftft05rd611gx)" style="stroke:#A80036;stroke-width:1.0;"/><path d="M507,202.4375 L507,212.4375 L517,212.4375 L507,202.4375 " fill="#FBFB77" style="stroke:#A80036;stroke-width:1.0;"/><text fill="#000000" font-family="sans-serif" font-size="13" lengthAdjust="spacing" textLength="174" x="328" y="219.5044">Resource Manager Storage</text><line style="stroke:#A80036;stroke-width:1.0;" x1="322" x2="517" y1="227.5703" y2="227.5703"/><line style="stroke:#A80036;stroke-width:1.0;" x1="322" x2="517" y1="229.5703" y2="229.5703"/><text fill="#000000" font-family="sans-serif" font-size="13" lengthAdjust="spacing" textLength="64" x="328" y="244.6372">- U-DS S3</text><rect fill="#FEFECE" filter="url(#ftft05rd611gx)" height="61.9063" rx="12.5" ry="12.5" style="stroke:#A80036;stroke-width:1.5;" width="212" x="90" y="196.6172"/><text fill="#000000" font-family="sans-serif" font-size="12" lengthAdjust="spacing" textLength="151" x="100" y="217.7559">Upload or link data Files</text><text fill="#000000" font-family="sans-serif" font-size="12" lengthAdjust="spacing" textLength="28" x="100" y="231.7246">from</text><text fill="#000000" font-family="sans-serif" font-size="12" font-weight="bold" lengthAdjust="spacing" textLength="160" x="132" y="231.7246">Data StageOut volume</text><text fill="#000000" font-family="sans-serif" font-size="12" lengthAdjust="spacing" textLength="135" x="100" y="245.6934">to Resource Manager</text><path d="M391,270.375 L391,291.5078 L371,295.5078 L391,299.5078 L391,320.6406 A0,0 0 0 0 391,320.6406 L499,320.6406 A0,0 0 0 0 499,320.6406 L499,280.375 L489,270.375 L391,270.375 A0,0 0 0 0 391,270.375 " fill="#FBFB77" filter="url(#ftft05rd611gx)" style="stroke:#A80036;stroke-width:1.0;"/><path d="M489,270.375 L489,280.375 L499,280.375 L489,270.375 " fill="#FBFB77" style="stroke:#A80036;stroke-width:1.0;"/><text fill="#000000" font-family="sans-serif" font-size="13" lengthAdjust="spacing" textLength="87" x="397" y="287.4419">U-DS Catalog</text><line style="stroke:#A80036;stroke-width:1.0;" x1="391" x2="499" y1="295.5078" y2="295.5078"/><line style="stroke:#A80036;stroke-width:1.0;" x1="391" x2="499" y1="297.5078" y2="297.5078"/><text fill="#000000" font-family="sans-serif" font-size="13" lengthAdjust="spacing" textLength="39" x="397" y="312.5747">- CNM</text><rect fill="#FEFECE" filter="url(#ftft05rd611gx)" height="33.9688" rx="12.5" ry="12.5" style="stroke:#A80036;stroke-width:1.5;" width="350" x="21" y="278.5234"/><text fill="#000000" font-family="sans-serif" font-size="12" lengthAdjust="spacing" textLength="330" x="31" y="299.6621">Publish or Register data, metadata, and provenance</text><rect fill="#FEFECE" filter="url(#ftft05rd611gx)" height="47.9375" rx="12.5" ry="12.5" style="stroke:#A80036;stroke-width:1.5;" width="200" x="96" y="352.6406"/><text fill="#000000" font-family="sans-serif" font-size="12" lengthAdjust="spacing" textLength="59" x="106" y="373.7793">Generate</text><text fill="#000000" font-family="sans-serif" font-size="12" font-weight="bold" lengthAdjust="spacing" textLength="117" x="169" y="373.7793">STAC documents</text><text fill="#000000" font-family="sans-serif" font-size="12" lengthAdjust="spacing" textLength="135" x="110" y="387.748">for all the copied files</text><rect fill="#FEFECE" filter="url(#ftft05rd611gx)" height="33.9688" rx="12.5" ry="12.5" style="stroke:#A80036;stroke-width:1.5;" width="250" x="71" y="116.3516"/><text fill="#000000" font-family="sans-serif" font-size="12" lengthAdjust="spacing" textLength="230" x="81" y="137.4902">for each child or item in Catalog.json</text><polygon fill="#FEFECE" filter="url(#ftft05rd611gx)" points="143.5,420.5781,248.5,420.5781,260.5,432.5781,248.5,444.5781,143.5,444.5781,131.5,432.5781,143.5,420.5781" style="stroke:#A80036;stroke-width:1.5;"/><text fill="#000000" font-family="sans-serif" font-size="11" lengthAdjust="spacing" textLength="105" x="143.5" y="436.3862">More Parameters?</text><text fill="#000000" font-family="sans-serif" font-size="11" lengthAdjust="spacing" textLength="20" x="260.5" y="429.9839">yes</text><path d="M326.5,463.9961 L326.5,477.5625 L306.5,481.5625 L326.5,485.5625 L326.5,499.1289 A0,0 0 0 0 326.5,499.1289 L590.5,499.1289 A0,0 0 0 0 590.5,499.1289 L590.5,473.9961 L580.5,463.9961 L326.5,463.9961 A0,0 0 0 0 326.5,463.9961 " fill="#FBFB77" filter="url(#ftft05rd611gx)" style="stroke:#A80036;stroke-width:1.0;"/><path d="M580.5,463.9961 L580.5,473.9961 L590.5,473.9961 L580.5,463.9961 " fill="#FBFB77" style="stroke:#A80036;stroke-width:1.0;"/><text fill="#000000" font-family="sans-serif" font-size="13" lengthAdjust="spacing" textLength="243" x="332.5" y="481.063">OGC API Processes Execute Response</text><line style="stroke:#A80036;stroke-width:1.0;" x1="326.5" x2="590.5" y1="489.1289" y2="489.1289"/><line style="stroke:#A80036;stroke-width:1.0;" x1="326.5" x2="590.5" y1="491.1289" y2="491.1289"/><rect fill="#FEFECE" filter="url(#ftft05rd611gx)" height="33.9688" rx="12.5" ry="12.5" style="stroke:#A80036;stroke-width:1.5;" width="221" x="85.5" y="464.5781"/><text fill="#000000" font-family="sans-serif" font-size="12" lengthAdjust="spacing" textLength="201" x="95.5" y="485.7168">Generate WPS Execution Report</text><ellipse cx="196" cy="530.1289" fill="#FFFFFF" filter="url(#ftft05rd611gx)" rx="11" ry="11" style="stroke:#000000;stroke-width:1.0;"/><ellipse cx="196" cy="530.1289" fill="#000000" rx="6" ry="6" style="stroke:#7F7F7F;stroke-width:1.0;"/><line style="stroke:#A80036;stroke-width:1.5;" x1="196" x2="196" y1="258.5234" y2="278.5234"/><polygon fill="#A80036" points="192,268.5234,196,278.5234,200,268.5234,196,272.5234" style="stroke:#A80036;stroke-width:1.0;"/><line style="stroke:#A80036;stroke-width:1.5;" x1="196" x2="196" y1="312.4922" y2="352.6406"/><polygon fill="#A80036" points="192,342.6406,196,352.6406,200,342.6406,196,346.6406" style="stroke:#A80036;stroke-width:1.0;"/><line style="stroke:#A80036;stroke-width:1.5;" x1="196" x2="196" y1="150.3203" y2="196.6172"/><polygon fill="#A80036" points="192,186.6172,196,196.6172,200,186.6172,196,190.6172" style="stroke:#A80036;stroke-width:1.0;"/><line style="stroke:#A80036;stroke-width:1.5;" x1="260.5" x2="539" y1="432.5781" y2="432.5781"/><polygon fill="#A80036" points="535,287.8828,539,277.8828,543,287.8828,539,283.8828" style="stroke:#A80036;stroke-width:1.5;"/><line style="stroke:#A80036;stroke-width:1.5;" x1="539" x2="539" y1="133.3359" y2="432.5781"/><line style="stroke:#A80036;stroke-width:1.5;" x1="539" x2="321" y1="133.3359" y2="133.3359"/><polygon fill="#A80036" points="331,129.3359,321,133.3359,331,137.3359,327,133.3359" style="stroke:#A80036;stroke-width:1.0;"/><line style="stroke:#A80036;stroke-width:1.5;" x1="196" x2="196" y1="400.5781" y2="420.5781"/><polygon fill="#A80036" points="192,410.5781,196,420.5781,200,410.5781,196,414.5781" style="stroke:#A80036;stroke-width:1.0;"/><line style="stroke:#A80036;stroke-width:1.5;" x1="196" x2="196" y1="73.6523" y2="116.3516"/><polygon fill="#A80036" points="192,106.3516,196,116.3516,200,106.3516,196,110.3516" style="stroke:#A80036;stroke-width:1.0;"/><line style="stroke:#A80036;stroke-width:1.5;" x1="196" x2="196" y1="444.5781" y2="464.5781"/><polygon fill="#A80036" points="192,454.5781,196,464.5781,200,454.5781,196,458.5781" style="stroke:#A80036;stroke-width:1.0;"/><line style="stroke:#A80036;stroke-width:1.5;" x1="196" x2="196" y1="498.5469" y2="519.1289"/><polygon fill="#A80036" points="192,509.1289,196,519.1289,200,509.1289,196,513.1289" style="stroke:#A80036;stroke-width:1.0;"/><!--MD5=[6add077bc159183129dafbb6827e3b97]
@startuml
title ADES Data Stage Out

start
note right
  Data StageOut Volume
  + Catalog.json (STAC Catalog)
  ====
  File organized in out folder with STAC Documents
end note

repeat :for each child or item in Catalog.json;

  partition "Resource Shipping Module" {

      :Upload or link data Files
      from **Data StageOut volume**
      to Resource Manager;
      note right
        Resource Manager Storage
        ====
        - U-DS S3
      end note
      :Publish or Register data, metadata, and provenance;
      note right
        U-DS Catalog
        ====
        - CNM
      end note

  }

  :Generate **STAC documents**
   for all the copied files;

repeat while (More Parameters?) is (yes)
:Generate WPS Execution Report;
note right
  OGC API Processes Execute Response
  ====
end note

stop


@enduml

PlantUML version 1.2021.12(Tue Oct 05 16:01:58 GMT 2021)
(GPL source distribution)
Java Runtime: OpenJDK Runtime Environment
JVM: OpenJDK 64-Bit Server VM
Default Encoding: UTF-8
Language: en
Country: US
--></g></svg>