<?xml version="1.0" encoding="UTF-8" standalone="no"?><svg xmlns="http://www.w3.org/2000/svg" xmlns:xlink="http://www.w3.org/1999/xlink" contentStyleType="text/css" height="568px" preserveAspectRatio="none" style="width:602px;height:568px;background:#FFFFFF;" version="1.1" viewBox="0 0 602 568" width="602px" zoomAndPan="magnify"><defs/><g><rect height="26.2969" style="stroke:#00000000;stroke-width:1.0;fill:none;" width="174" x="212.75" y="15"/><text fill="#000000" font-family="sans-serif" font-size="14" font-weight="bold" lengthAdjust="spacing" textLength="164" x="217.75" y="32.9951">ADES Data Stage Out</text><path d="M226,47.2969 L226,75.9961 L206,79.9961 L226,83.9961 L226,112.6953 A0,0 0 0 0 226,112.6953 L560,112.6953 A0,0 0 0 0 560,112.6953 L560,57.2969 L550,47.2969 L226,47.2969 A0,0 0 0 0 226,47.2969 " fill="#FEFFDD" style="stroke:#181818;stroke-width:0.5;"/><path d="M550,47.2969 L550,57.2969 L560,57.2969 L550,47.2969 " fill="#FEFFDD" style="stroke:#181818;stroke-width:0.5;"/><text fill="#000000" font-family="sans-serif" font-size="13" lengthAdjust="spacing" textLength="149" x="232" y="64.3638">Data StageOut Volume</text><text fill="#000000" font-family="sans-serif" font-size="13" lengthAdjust="spacing" textLength="195" x="232" y="79.4966">+ Catalog.json (STAC Catalog)</text><line style="stroke:#181818;stroke-width:1.0;" x1="226" x2="560" y1="87.5625" y2="87.5625"/><line style="stroke:#181818;stroke-width:1.0;" x1="226" x2="560" y1="89.5625" y2="89.5625"/><text fill="#000000" font-family="sans-serif" font-size="13" lengthAdjust="spacing" textLength="313" x="232" y="104.6294">File organized in out folder with STAC Documents</text><ellipse cx="196" cy="79.9961" fill="#222222" rx="10" ry="10" style="stroke:#222222;stroke-width:1.0;"/><rect fill="none" height="172.3203" style="stroke:#000000;stroke-width:1.5;" width="516" x="11" y="176.6641"/><path d="M207,176.6641 L207,185.9609 L197,195.9609 L11,195.9609 " fill="none" style="stroke:#000000;stroke-width:1.5;"/><text fill="#000000" font-family="sans-serif" font-size="14" lengthAdjust="spacing" textLength="186" x="14" y="190.6592">Resource Shipping Module</text><path d="M322,218.7813 L322,239.9141 L302,243.9141 L322,247.9141 L322,269.0469 A0,0 0 0 0 322,269.0469 L517,269.0469 A0,0 0 0 0 517,269.0469 L517,228.7813 L507,218.7813 L322,218.7813 A0,0 0 0 0 322,218.7813 " fill="#FEFFDD" style="stroke:#181818;stroke-width:0.5;"/><path d="M507,218.7813 L507,228.7813 L517,228.7813 L507,218.7813 " fill="#FEFFDD" style="stroke:#181818;stroke-width:0.5;"/><text fill="#000000" font-family="sans-serif" font-size="13" lengthAdjust="spacing" textLength="174" x="328" y="235.8481">Resource Manager Storage</text><line style="stroke:#181818;stroke-width:1.0;" x1="322" x2="517" y1="243.9141" y2="243.9141"/><line style="stroke:#181818;stroke-width:1.0;" x1="322" x2="517" y1="245.9141" y2="245.9141"/><text fill="#000000" font-family="sans-serif" font-size="13" lengthAdjust="spacing" textLength="64" x="328" y="260.981">- U-DS S3</text><rect fill="#F1F1F1" height="61.9063" rx="12.5" ry="12.5" style="stroke:#181818;stroke-width:0.5;" width="212" x="90" y="212.9609"/><text fill="#000000" font-family="sans-serif" font-size="12" lengthAdjust="spacing" textLength="151" x="100" y="234.0996">Upload or link data Files</text><text fill="#000000" font-family="sans-serif" font-size="12" lengthAdjust="spacing" textLength="28" x="100" y="248.0684">from</text><text fill="#000000" font-family="sans-serif" font-size="12" font-weight="bold" lengthAdjust="spacing" textLength="160" x="132" y="248.0684">Data StageOut volume</text><text fill="#000000" font-family="sans-serif" font-size="12" lengthAdjust="spacing" textLength="135" x="100" y="262.0371">to Resource Manager</text><path d="M391,286.7188 L391,307.8516 L371,311.8516 L391,315.8516 L391,336.9844 A0,0 0 0 0 391,336.9844 L499,336.9844 A0,0 0 0 0 499,336.9844 L499,296.7188 L489,286.7188 L391,286.7188 A0,0 0 0 0 391,286.7188 " fill="#FEFFDD" style="stroke:#181818;stroke-width:0.5;"/><path d="M489,286.7188 L489,296.7188 L499,296.7188 L489,286.7188 " fill="#FEFFDD" style="stroke:#181818;stroke-width:0.5;"/><text fill="#000000" font-family="sans-serif" font-size="13" lengthAdjust="spacing" textLength="87" x="397" y="303.7856">U-DS Catalog</text><line style="stroke:#181818;stroke-width:1.0;" x1="391" x2="499" y1="311.8516" y2="311.8516"/><line style="stroke:#181818;stroke-width:1.0;" x1="391" x2="499" y1="313.8516" y2="313.8516"/><text fill="#000000" font-family="sans-serif" font-size="13" lengthAdjust="spacing" textLength="39" x="397" y="328.9185">- CNM</text><rect fill="#F1F1F1" height="33.9688" rx="12.5" ry="12.5" style="stroke:#181818;stroke-width:0.5;" width="350" x="21" y="294.8672"/><text fill="#000000" font-family="sans-serif" font-size="12" lengthAdjust="spacing" textLength="330" x="31" y="316.0059">Publish or Register data, metadata, and provenance</text><rect fill="#F1F1F1" height="47.9375" rx="12.5" ry="12.5" style="stroke:#181818;stroke-width:0.5;" width="200" x="96" y="368.9844"/><text fill="#000000" font-family="sans-serif" font-size="12" lengthAdjust="spacing" textLength="59" x="106" y="390.123">Generate</text><text fill="#000000" font-family="sans-serif" font-size="12" font-weight="bold" lengthAdjust="spacing" textLength="117" x="169" y="390.123">STAC documents</text><text fill="#000000" font-family="sans-serif" font-size="12" lengthAdjust="spacing" textLength="135" x="110" y="404.0918">for all the copied files</text><rect fill="#F1F1F1" height="33.9688" rx="12.5" ry="12.5" style="stroke:#181818;stroke-width:0.5;" width="250" x="71" y="132.6953"/><text fill="#000000" font-family="sans-serif" font-size="12" lengthAdjust="spacing" textLength="230" x="81" y="153.834">for each child or item in Catalog.json</text><polygon fill="#F1F1F1" points="143.5,436.9219,248.5,436.9219,260.5,448.9219,248.5,460.9219,143.5,460.9219,131.5,448.9219,143.5,436.9219" style="stroke:#181818;stroke-width:0.5;"/><text fill="#000000" font-family="sans-serif" font-size="11" lengthAdjust="spacing" textLength="105" x="143.5" y="452.73">More Parameters?</text><text fill="#000000" font-family="sans-serif" font-size="11" lengthAdjust="spacing" textLength="20" x="260.5" y="446.3276">yes</text><path d="M326.5,480.3398 L326.5,493.9063 L306.5,497.9063 L326.5,501.9063 L326.5,515.4727 A0,0 0 0 0 326.5,515.4727 L590.5,515.4727 A0,0 0 0 0 590.5,515.4727 L590.5,490.3398 L580.5,480.3398 L326.5,480.3398 A0,0 0 0 0 326.5,480.3398 " fill="#FEFFDD" style="stroke:#181818;stroke-width:0.5;"/><path d="M580.5,480.3398 L580.5,490.3398 L590.5,490.3398 L580.5,480.3398 " fill="#FEFFDD" style="stroke:#181818;stroke-width:0.5;"/><text fill="#000000" font-family="sans-serif" font-size="13" lengthAdjust="spacing" textLength="243" x="332.5" y="497.4067">OGC API Processes Execute Response</text><line style="stroke:#181818;stroke-width:1.0;" x1="326.5" x2="590.5" y1="505.4727" y2="505.4727"/><line style="stroke:#181818;stroke-width:1.0;" x1="326.5" x2="590.5" y1="507.4727" y2="507.4727"/><rect fill="#F1F1F1" height="33.9688" rx="12.5" ry="12.5" style="stroke:#181818;stroke-width:0.5;" width="221" x="85.5" y="480.9219"/><text fill="#000000" font-family="sans-serif" font-size="12" lengthAdjust="spacing" textLength="201" x="95.5" y="502.0605">Generate WPS Execution Report</text><ellipse cx="196" cy="546.4727" rx="11" ry="11" style="stroke:#222222;stroke-width:1.0;fill:none;"/><ellipse cx="196" cy="546.4727" fill="#222222" rx="6" ry="6" style="stroke:#111111;stroke-width:1.0;"/><line style="stroke:#181818;stroke-width:1.0;" x1="196" x2="196" y1="274.8672" y2="294.8672"/><polygon fill="#181818" points="192,284.8672,196,294.8672,200,284.8672,196,288.8672" style="stroke:#181818;stroke-width:1.0;"/><line style="stroke:#181818;stroke-width:1.0;" x1="196" x2="196" y1="328.8359" y2="368.9844"/><polygon fill="#181818" points="192,358.9844,196,368.9844,200,358.9844,196,362.9844" style="stroke:#181818;stroke-width:1.0;"/><line style="stroke:#181818;stroke-width:1.0;" x1="196" x2="196" y1="166.6641" y2="212.9609"/><polygon fill="#181818" points="192,202.9609,196,212.9609,200,202.9609,196,206.9609" style="stroke:#181818;stroke-width:1.0;"/><line style="stroke:#181818;stroke-width:1.0;" x1="260.5" x2="539" y1="448.9219" y2="448.9219"/><polygon fill="#181818" points="535,304.2266,539,294.2266,543,304.2266,539,300.2266" style="stroke:#181818;stroke-width:1.0;"/><line style="stroke:#181818;stroke-width:1.0;" x1="539" x2="539" y1="149.6797" y2="448.9219"/><line style="stroke:#181818;stroke-width:1.0;" x1="539" x2="321" y1="149.6797" y2="149.6797"/><polygon fill="#181818" points="331,145.6797,321,149.6797,331,153.6797,327,149.6797" style="stroke:#181818;stroke-width:1.0;"/><line style="stroke:#181818;stroke-width:1.0;" x1="196" x2="196" y1="416.9219" y2="436.9219"/><polygon fill="#181818" points="192,426.9219,196,436.9219,200,426.9219,196,430.9219" style="stroke:#181818;stroke-width:1.0;"/><line style="stroke:#181818;stroke-width:1.0;" x1="196" x2="196" y1="89.9961" y2="132.6953"/><polygon fill="#181818" points="192,122.6953,196,132.6953,200,122.6953,196,126.6953" style="stroke:#181818;stroke-width:1.0;"/><line style="stroke:#181818;stroke-width:1.0;" x1="196" x2="196" y1="460.9219" y2="480.9219"/><polygon fill="#181818" points="192,470.9219,196,480.9219,200,470.9219,196,474.9219" style="stroke:#181818;stroke-width:1.0;"/><line style="stroke:#181818;stroke-width:1.0;" x1="196" x2="196" y1="514.8906" y2="535.4727"/><polygon fill="#181818" points="192,525.4727,196,535.4727,200,525.4727,196,529.4727" style="stroke:#181818;stroke-width:1.0;"/><!--MD5=[f8ce73a459adec200914644f71d1ea94]
@startuml
title ADES Data Stage Out

start
note right
  Data StageOut Volume
  + Catalog.json (STAC Catalog)
  ====
  File organized in out folder with STAC Documents
end note

repeat :for each child or item in Catalog.json;

  partition "Resource Shipping Module" {

      :Upload or link data Files
      from **Data StageOut volume**
      to Resource Manager;
      note right
        Resource Manager Storage
        ====
        - U-DS S3
      end note
      :Publish or Register data, metadata, and provenance;
      note right
        U-DS Catalog
        ====
        - CNM
      end note

  }

  :Generate **STAC documents**
   for all the copied files;

repeat while (More Parameters?) is (yes)
:Generate WPS Execution Report;
note right
  OGC API Processes Execute Response
  ====
end note

stop


@enduml

PlantUML version 1.2022.3(Tue Mar 29 16:10:57 GMT 2022)
(GPL source distribution)
Java Runtime: OpenJDK Runtime Environment
JVM: OpenJDK 64-Bit Server VM
Default Encoding: UTF-8
Language: en
Country: US
--></g></svg>