<?xml version="1.0" encoding="UTF-8" standalone="no"?><svg xmlns="http://www.w3.org/2000/svg" xmlns:xlink="http://www.w3.org/1999/xlink" contentStyleType="text/css" height="688px" preserveAspectRatio="none" style="width:1803px;height:688px;background:#FFFFFF;" version="1.1" viewBox="0 0 1803 688" width="1803px" zoomAndPan="magnify"><defs/><g><!--MD5=[d565000a02c36ab8783818f23086a68c]
cluster ext--><g id="cluster_ext"><rect height="489.96" rx="2.5" ry="2.5" style="stroke:#444444;stroke-width:1.0;fill:none;stroke-dasharray:7.0,7.0;" width="530" x="7" y="7"/><text fill="#444444" font-family="sans-serif" font-size="16" font-weight="bold" lengthAdjust="spacing" textLength="132" x="206" y="23.8516">Services Areas</text><text fill="#444444" font-family="sans-serif" font-size="12" font-weight="bold" lengthAdjust="spacing" textLength="62" x="241" y="38.7637">[System]</text></g><!--MD5=[5b16638da74ee2624443ac6b2748fb53]
cluster cs--><g id="cluster_cs"><rect height="217.37" rx="2.5" ry="2.5" style="stroke:#444444;stroke-width:1.0;fill:none;stroke-dasharray:7.0,7.0;" width="1228" x="569" y="277.41"/><text fill="#444444" font-family="sans-serif" font-size="16" font-weight="bold" lengthAdjust="spacing" textLength="158" x="1104" y="294.2616">Common Services</text><text fill="#444444" font-family="sans-serif" font-size="12" font-weight="bold" lengthAdjust="spacing" textLength="62" x="1152" y="309.1737">[System]</text></g><!--MD5=[3fffc34736d2f7e76958dc3c596e3531]
entity sps--><g id="elem_sps"><rect fill="#999999" height="136.4063" rx="2.5" ry="2.5" style="stroke:#8A8A8A;stroke-width:0.5;" width="208" x="31" y="66"/><text fill="#FFFFFF" font-family="sans-serif" font-size="16" font-weight="bold" lengthAdjust="spacing" textLength="172" x="49" y="90.8516">Science Processing</text><text fill="#FFFFFF" font-family="sans-serif" font-size="14" lengthAdjust="spacing" textLength="4" x="133" y="107.6201"> </text><text fill="#FFFFFF" font-family="sans-serif" font-size="14" lengthAdjust="spacing" textLength="126" x="72" y="123.917">Subsystem for the</text><text fill="#FFFFFF" font-family="sans-serif" font-size="14" lengthAdjust="spacing" textLength="184" x="41" y="140.2139">generation of science data</text><text fill="#FFFFFF" font-family="sans-serif" font-size="14" lengthAdjust="spacing" textLength="148" x="59" y="156.5107">products through the</text><text fill="#FFFFFF" font-family="sans-serif" font-size="14" lengthAdjust="spacing" textLength="179" x="43.5" y="172.8076">combination of Algorithms</text><text fill="#FFFFFF" font-family="sans-serif" font-size="14" lengthAdjust="spacing" textLength="62" x="104" y="189.1045">and Data</text></g><!--MD5=[727c1040af9be188ab17d19c49f9ac10]
entity ds--><g id="elem_ds"><rect fill="#999999" height="120.1094" rx="2.5" ry="2.5" style="stroke:#8A8A8A;stroke-width:0.5;" width="219" x="274.5" y="74.15"/><text fill="#FFFFFF" font-family="sans-serif" font-size="16" font-weight="bold" lengthAdjust="spacing" textLength="122" x="323" y="99.0016">Data Services</text><text fill="#FFFFFF" font-family="sans-serif" font-size="14" lengthAdjust="spacing" textLength="4" x="382" y="115.7701"> </text><text fill="#FFFFFF" font-family="sans-serif" font-size="14" lengthAdjust="spacing" textLength="171" x="298.5" y="132.067">Subsystem for ingestion,</text><text fill="#FFFFFF" font-family="sans-serif" font-size="14" lengthAdjust="spacing" textLength="192" x="286" y="148.3639">storage, and access to data</text><text fill="#FFFFFF" font-family="sans-serif" font-size="14" lengthAdjust="spacing" textLength="195" x="284.5" y="164.6607">products for use in the Unity</text><text fill="#FFFFFF" font-family="sans-serif" font-size="14" lengthAdjust="spacing" textLength="55" x="356.5" y="180.9576">System.</text></g><!--MD5=[a9d198bd5c1c9d64f3f6943bebfbf470]
entity as--><g id="elem_as"><rect fill="#999999" height="103.8125" rx="2.5" ry="2.5" style="stroke:#8A8A8A;stroke-width:0.5;" width="210" x="31" y="351.69"/><text fill="#FFFFFF" font-family="sans-serif" font-size="16" font-weight="bold" lengthAdjust="spacing" textLength="152" x="60" y="376.5416">Analysis Services</text><text fill="#FFFFFF" font-family="sans-serif" font-size="14" lengthAdjust="spacing" textLength="4" x="134" y="393.3101"> </text><text fill="#FFFFFF" font-family="sans-serif" font-size="14" lengthAdjust="spacing" textLength="182" x="45" y="409.607">Higher level data functions</text><text fill="#FFFFFF" font-family="sans-serif" font-size="14" lengthAdjust="spacing" textLength="167" x="50.5" y="425.9039">to access and transform</text><text fill="#FFFFFF" font-family="sans-serif" font-size="14" lengthAdjust="spacing" textLength="34" x="119" y="442.2007">data.</text></g><!--MD5=[d4c4ca0c6539aad8b80246bd3465f857]
entity ads--><g id="elem_ads"><rect fill="#999999" height="138.7344" rx="2.5" ry="2.5" style="stroke:#8A8A8A;stroke-width:0.5;" width="215" x="276.5" y="334.23"/><text fill="#FFFFFF" font-family="sans-serif" font-size="16" font-weight="bold" lengthAdjust="spacing" textLength="85" x="338.5" y="359.0816">Algorithm</text><text fill="#FFFFFF" font-family="sans-serif" font-size="16" font-weight="bold" lengthAdjust="spacing" textLength="117" x="325.5" y="377.7066">Development</text><text fill="#FFFFFF" font-family="sans-serif" font-size="14" lengthAdjust="spacing" textLength="4" x="382" y="394.4751"> </text><text fill="#FFFFFF" font-family="sans-serif" font-size="14" lengthAdjust="spacing" textLength="179" x="294.5" y="410.772">Subsystem for developing</text><text fill="#FFFFFF" font-family="sans-serif" font-size="14" lengthAdjust="spacing" textLength="167" x="298.5" y="427.0689">and assembling science</text><text fill="#FFFFFF" font-family="sans-serif" font-size="14" lengthAdjust="spacing" textLength="191" x="286.5" y="443.3657">algorithms into an algorithm</text><text fill="#FFFFFF" font-family="sans-serif" font-size="14" lengthAdjust="spacing" textLength="50" x="359" y="459.6626">catalog</text></g><!--MD5=[e29493a8775effcafa538aa0485107d1]
entity auth--><g id="elem_auth"><rect fill="#438DD5" height="120.1094" rx="2.5" ry="2.5" style="stroke:#3C7FC0;stroke-width:0.5;" width="215" x="1321.5" y="343.54"/><text fill="#FFFFFF" font-family="sans-serif" font-size="16" font-weight="bold" lengthAdjust="spacing" textLength="130" x="1361" y="368.3916">Authentication</text><text fill="#FFFFFF" font-family="sans-serif" font-size="16" font-weight="bold" lengthAdjust="spacing" textLength="65" x="1396.5" y="387.0166">Service</text><text fill="#FFFFFF" font-family="sans-serif" font-size="12" font-style="italic" lengthAdjust="spacing" textLength="90" x="1384" y="401.9287">[Cognito, SSO]</text><text fill="#FFFFFF" font-family="sans-serif" font-size="14" lengthAdjust="spacing" textLength="4" x="1427" y="417.7539"> </text><text fill="#FFFFFF" font-family="sans-serif" font-size="14" lengthAdjust="spacing" textLength="187" x="1335.5" y="434.0507">Authenticate and authorize</text><text fill="#FFFFFF" font-family="sans-serif" font-size="14" lengthAdjust="spacing" textLength="170" x="1344" y="450.3476">users at point of request</text></g><!--MD5=[ad2d8a37fcd8bd3d1948ca966d1ba773]
entity lggng--><g id="elem_lggng"><rect fill="#438DD5" height="117.7813" rx="2.5" ry="2.5" style="stroke:#3C7FC0;stroke-width:0.5;" width="207" x="585.5" y="344.7"/><text fill="#FFFFFF" font-family="sans-serif" font-size="16" font-weight="bold" lengthAdjust="spacing" textLength="150" x="614" y="369.5516">Logging Services</text><text fill="#FFFFFF" font-family="sans-serif" font-size="12" font-style="italic" lengthAdjust="spacing" textLength="34" x="672" y="384.4637">[TBD]</text><text fill="#FFFFFF" font-family="sans-serif" font-size="14" lengthAdjust="spacing" textLength="4" x="687" y="400.2889"> </text><text fill="#FFFFFF" font-family="sans-serif" font-size="14" lengthAdjust="spacing" textLength="179" x="599.5" y="416.5857">Provides a systematic way</text><text fill="#FFFFFF" font-family="sans-serif" font-size="14" lengthAdjust="spacing" textLength="172" x="601" y="432.8826">for other service areas to</text><text fill="#FFFFFF" font-family="sans-serif" font-size="14" lengthAdjust="spacing" textLength="83" x="647.5" y="449.1795">publish logs</text></g><!--MD5=[1745b23996e5cce516134b88e9f9d69d]
entity mtrcs--><g id="elem_mtrcs"><rect fill="#438DD5" height="117.7813" rx="2.5" ry="2.5" style="stroke:#3C7FC0;stroke-width:0.5;" width="207" x="827.5" y="344.7"/><text fill="#FFFFFF" font-family="sans-serif" font-size="16" font-weight="bold" lengthAdjust="spacing" textLength="148" x="857" y="369.5516">Metrics Services</text><text fill="#FFFFFF" font-family="sans-serif" font-size="12" font-style="italic" lengthAdjust="spacing" textLength="34" x="914" y="384.4637">[TBD]</text><text fill="#FFFFFF" font-family="sans-serif" font-size="14" lengthAdjust="spacing" textLength="4" x="929" y="400.2889"> </text><text fill="#FFFFFF" font-family="sans-serif" font-size="14" lengthAdjust="spacing" textLength="179" x="841.5" y="416.5857">Provides a systematic way</text><text fill="#FFFFFF" font-family="sans-serif" font-size="14" lengthAdjust="spacing" textLength="172" x="843" y="432.8826">for other service areas to</text><text fill="#FFFFFF" font-family="sans-serif" font-size="14" lengthAdjust="spacing" textLength="105" x="878.5" y="449.1795">publish metrics</text></g><!--MD5=[467465f5934668231fcb9440f8df2ff4]
entity ntfy--><g id="elem_ntfy"><rect fill="#438DD5" height="150.375" rx="2.5" ry="2.5" style="stroke:#3C7FC0;stroke-width:0.5;" width="217" x="1069.5" y="328.41"/><text fill="#FFFFFF" font-family="sans-serif" font-size="16" font-weight="bold" lengthAdjust="spacing" textLength="182" x="1087" y="353.2616">Notification Services</text><text fill="#FFFFFF" font-family="sans-serif" font-size="12" font-style="italic" lengthAdjust="spacing" textLength="34" x="1161" y="368.1737">[TBD]</text><text fill="#FFFFFF" font-family="sans-serif" font-size="14" lengthAdjust="spacing" textLength="4" x="1176" y="383.9989"> </text><text fill="#FFFFFF" font-family="sans-serif" font-size="14" lengthAdjust="spacing" textLength="179" x="1088.5" y="400.2957">Provides a systematic way</text><text fill="#FFFFFF" font-family="sans-serif" font-size="14" lengthAdjust="spacing" textLength="172" x="1090" y="416.5926">for other service areas to</text><text fill="#FFFFFF" font-family="sans-serif" font-size="14" lengthAdjust="spacing" textLength="197" x="1079.5" y="432.8895">provide machine-to-machine</text><text fill="#FFFFFF" font-family="sans-serif" font-size="14" lengthAdjust="spacing" textLength="144" x="1104" y="449.1864">and machine-to-user</text><text fill="#FFFFFF" font-family="sans-serif" font-size="14" lengthAdjust="spacing" textLength="83" x="1136.5" y="465.4832">notifications</text></g><!--MD5=[389badd7c35f4ea505f5befbc26a5052]
entity deployment--><g id="elem_deployment"><rect fill="#438DD5" height="134.0781" rx="2.5" ry="2.5" style="stroke:#3C7FC0;stroke-width:0.5;" width="209" x="1571.5" y="336.55"/><text fill="#FFFFFF" font-family="sans-serif" font-size="16" font-weight="bold" lengthAdjust="spacing" textLength="187" x="1582.5" y="361.4016">Deployment Services</text><text fill="#FFFFFF" font-family="sans-serif" font-size="12" font-style="italic" lengthAdjust="spacing" textLength="34" x="1659" y="376.3137">[TBD]</text><text fill="#FFFFFF" font-family="sans-serif" font-size="14" lengthAdjust="spacing" textLength="4" x="1674" y="392.1389"> </text><text fill="#FFFFFF" font-family="sans-serif" font-size="14" lengthAdjust="spacing" textLength="181" x="1585.5" y="408.4357">Provides registries, artifact</text><text fill="#FFFFFF" font-family="sans-serif" font-size="14" lengthAdjust="spacing" textLength="168" x="1590" y="424.7326">control, and deployment</text><text fill="#FFFFFF" font-family="sans-serif" font-size="14" lengthAdjust="spacing" textLength="170" x="1589" y="441.0295">support for other service</text><text fill="#FFFFFF" font-family="sans-serif" font-size="14" lengthAdjust="spacing" textLength="42" x="1655" y="457.3264">areas.</text></g><!--MD5=[ebe906dc62c9da851afbaa06550d0691]
link deployment to ext--><g id="link_deployment_ext"><path d="M1627.42,336.38 C1607.03,312.45 1581.63,287.03 1554,269.41 C1508.02,240.08 1490.38,243.59 1437,232.41 C1239.93,191.13 1014.9225,166.885 838.1975,152.9313 C749.835,145.9544 673.5431,141.5503 618.8494,138.8761 C591.5025,137.539 569.5552,136.6343 554.1983,136.0568 C550.3591,135.9124 546.9317,135.7884 543.9349,135.6833 C542.4365,135.6307 541.0458,135.5828 539.765,135.5395 C539.1245,135.5178 538.5116,135.4972 537.9265,135.4777 C537.6339,135.468 537.3483,135.4585 537.0696,135.4493 " fill="none" id="deployment-to-ext" style="stroke:#666666;stroke-width:1.0;"/><polygon fill="#666666" points="537.0696,135.4493,544.9664,138.7114,545.1642,132.7147,537.0696,135.4493" style="stroke:#666666;stroke-width:1.0;"/><text fill="#666666" font-family="sans-serif" font-size="12" font-weight="bold" lengthAdjust="spacing" textLength="65" x="1556" y="244.5487">Supports</text><text fill="#666666" font-family="sans-serif" font-size="12" font-weight="bold" lengthAdjust="spacing" textLength="103" x="1539" y="258.5174">Deployment of</text></g><!--MD5=[d194b8db0bf9d158e49be3a46b9aff77]
link auth to ext--><g id="link_auth_ext"><path d="M1387.21,343.26 C1365.41,316.66 1336.5,287.3 1304,269.41 C1228.04,227.59 1036.7125,194.2325 863.1775,171.2338 C776.41,159.7344 694.0906,150.8247 632.8644,144.7417 C602.2513,141.7002 576.9114,139.3654 558.9255,137.7669 C549.9325,136.9677 542.778,136.3525 537.7221,135.9251 " fill="none" id="auth-to-ext" style="stroke:#666666;stroke-width:1.0;"/><polygon fill="#666666" points="537.7221,135.9251,545.4409,139.5883,545.9463,133.6096,537.7221,135.9251" style="stroke:#666666;stroke-width:1.0;"/><text fill="#666666" font-family="sans-serif" font-size="12" font-weight="bold" lengthAdjust="spacing" textLength="144" x="1284" y="251.5487">Authenticates users</text></g><!--MD5=[f430c8a1101a3df6879e744101f1259b]
link ext to lggng--><g id="link_ext_lggng"><path d="M537.0645,148.6785 C537.1628,148.8427 537.2618,149.0082 537.3617,149.175 C537.5613,149.5087 537.7642,149.8477 537.9701,150.1919 C538.382,150.8802 538.8064,151.5894 539.2429,152.3189 C540.1159,153.7777 541.0372,155.3174 542.0041,156.9331 C549.7388,169.8588 560.3838,187.6475 572.44,207.795 C596.5525,248.09 626.31,297.82 649.72,336.95 " fill="none" id="ext-to-lggng" style="stroke:#666666;stroke-width:1.0;"/><polygon fill="#666666" points="654.17,343.39,652.6265,334.9866,647.4816,338.0735,654.17,343.39" style="stroke:#666666;stroke-width:1.0;"/><text fill="#666666" font-family="sans-serif" font-size="12" font-weight="bold" lengthAdjust="spacing" textLength="107" x="606" y="244.5487">Publishes Logs</text><text fill="#666666" font-family="sans-serif" font-size="12" font-style="italic" lengthAdjust="spacing" textLength="36" x="641.5" y="258.5174">[http]</text></g><!--MD5=[e2026fcb0d6309444c4293e87c6f1482]
link ext to mtrcs--><g id="link_ext_mtrcs"><path d="M537.2311,137.8118 C537.5433,137.913 537.8638,138.0172 538.1925,138.1242 C543.4512,139.8366 550.8023,142.2873 559.8197,145.4378 C577.8544,151.7388 602.5538,160.8388 630.5075,172.43 C686.415,195.6125 755.34,228.76 810,269.41 C836.01,288.75 860.81,314.28 881.11,337.82 " fill="none" id="ext-to-mtrcs" style="stroke:#666666;stroke-width:1.0;"/><polygon fill="#666666" points="886.71,343.4,883.8032,335.3657,879.2371,339.2581,886.71,343.4" style="stroke:#666666;stroke-width:1.0;"/><text fill="#666666" font-family="sans-serif" font-size="12" font-weight="bold" lengthAdjust="spacing" textLength="125" x="798" y="244.5487">Publishes Metrics</text><text fill="#666666" font-family="sans-serif" font-size="12" font-style="italic" lengthAdjust="spacing" textLength="36" x="842.5" y="258.5174">[http]</text></g><!--MD5=[2d64f4e1a71ce44889decf51d8b0db9a]
link ext to ntfy--><g id="link_ext_ntfy"><path d="M537.6064,135.5141 C537.8305,135.5239 538.0587,135.5339 538.291,135.5442 C540.1498,135.6266 542.2732,135.7271 544.6485,135.8489 C554.1495,136.3363 567.6789,137.1656 584.4078,138.55 C617.8656,141.3188 664.1213,146.3075 716.5425,155.22 C821.385,173.045 950.89,206.565 1052,269.41 C1074.47,283.37 1095.63,302.3 1113.96,321.51 " fill="none" id="ext-to-ntfy" style="stroke:#666666;stroke-width:1.0;"/><polygon fill="#666666" points="1119.06,327.02,1115.7816,319.13,1111.402,323.2312,1119.06,327.02" style="stroke:#666666;stroke-width:1.0;"/><text fill="#666666" font-family="sans-serif" font-size="12" font-weight="bold" lengthAdjust="spacing" textLength="55" x="1038" y="244.5487">Notifies</text><text fill="#666666" font-family="sans-serif" font-size="12" font-style="italic" lengthAdjust="spacing" textLength="73" x="1029" y="258.5174">[email/http]</text></g><!--MD5=[12853f797ecbccb97d7945848cad75a9]
link sps to ds--></g></svg>