<?xml version="1.0" encoding="UTF-8" standalone="no"?><svg xmlns="http://www.w3.org/2000/svg" xmlns:xlink="http://www.w3.org/1999/xlink" contentStyleType="text/css" height="688px" preserveAspectRatio="none" style="width:1803px;height:688px;background:#FFFFFF;" version="1.1" viewBox="0 0 1803 688" width="1803px" zoomAndPan="magnify"><defs/><g><!--MD5=[d565000a02c36ab8783818f23086a68c]
cluster ext--><g id="cluster_ext"><rect height="489.5" rx="2.5" ry="2.5" style="stroke:#444444;stroke-width:1.0;fill:none;stroke-dasharray:7.0,7.0;" width="530" x="7" y="7"/><text fill="#444444" font-family="sans-serif" font-size="16" font-weight="bold" lengthAdjust="spacing" textLength="132" x="206" y="23.8516">Services Areas</text><text fill="#444444" font-family="sans-serif" font-size="12" font-weight="bold" lengthAdjust="spacing" textLength="62" x="241" y="38.7637">[System]</text></g><!--MD5=[5b16638da74ee2624443ac6b2748fb53]
cluster cs--><g id="cluster_cs"><rect height="217" rx="2.5" ry="2.5" style="stroke:#444444;stroke-width:1.0;fill:none;stroke-dasharray:7.0,7.0;" width="1228" x="569" y="277"/><text fill="#444444" font-family="sans-serif" font-size="16" font-weight="bold" lengthAdjust="spacing" textLength="158" x="1104" y="293.8516">Common Services</text><text fill="#444444" font-family="sans-serif" font-size="12" font-weight="bold" lengthAdjust="spacing" textLength="62" x="1152" y="308.7637">[System]</text></g><!--MD5=[3fffc34736d2f7e76958dc3c596e3531]
entity sps--><g id="elem_sps"><rect fill="#999999" height="136.4063" rx="2.5" ry="2.5" style="stroke:#8A8A8A;stroke-width:0.5;" width="208" x="31" y="66"/><text fill="#FFFFFF" font-family="sans-serif" font-size="16" font-weight="bold" lengthAdjust="spacing" textLength="172" x="49" y="90.8516">Science Processing</text><text fill="#FFFFFF" font-family="sans-serif" font-size="14" lengthAdjust="spacing" textLength="4" x="133" y="107.6201"> </text><text fill="#FFFFFF" font-family="sans-serif" font-size="14" lengthAdjust="spacing" textLength="126" x="72" y="123.917">Subsystem for the</text><text fill="#FFFFFF" font-family="sans-serif" font-size="14" lengthAdjust="spacing" textLength="184" x="41" y="140.2139">generation of science data</text><text fill="#FFFFFF" font-family="sans-serif" font-size="14" lengthAdjust="spacing" textLength="148" x="59" y="156.5107">products through the</text><text fill="#FFFFFF" font-family="sans-serif" font-size="14" lengthAdjust="spacing" textLength="179" x="43.5" y="172.8076">combination of Algorithms</text><text fill="#FFFFFF" font-family="sans-serif" font-size="14" lengthAdjust="spacing" textLength="62" x="104" y="189.1045">and Data</text></g><!--MD5=[727c1040af9be188ab17d19c49f9ac10]
entity ds--><g id="elem_ds"><rect fill="#999999" height="120.1094" rx="2.5" ry="2.5" style="stroke:#8A8A8A;stroke-width:0.5;" width="219" x="274.5" y="74"/><text fill="#FFFFFF" font-family="sans-serif" font-size="16" font-weight="bold" lengthAdjust="spacing" textLength="122" x="323" y="98.8516">Data Services</text><text fill="#FFFFFF" font-family="sans-serif" font-size="14" lengthAdjust="spacing" textLength="4" x="382" y="115.6201"> </text><text fill="#FFFFFF" font-family="sans-serif" font-size="14" lengthAdjust="spacing" textLength="171" x="298.5" y="131.917">Subsystem for ingestion,</text><text fill="#FFFFFF" font-family="sans-serif" font-size="14" lengthAdjust="spacing" textLength="192" x="286" y="148.2139">storage, and access to data</text><text fill="#FFFFFF" font-family="sans-serif" font-size="14" lengthAdjust="spacing" textLength="195" x="284.5" y="164.5107">products for use in the Unity</text><text fill="#FFFFFF" font-family="sans-serif" font-size="14" lengthAdjust="spacing" textLength="55" x="356.5" y="180.8076">System.</text></g><!--MD5=[a9d198bd5c1c9d64f3f6943bebfbf470]
entity as--><g id="elem_as"><rect fill="#999999" height="103.8125" rx="2.5" ry="2.5" style="stroke:#8A8A8A;stroke-width:0.5;" width="210" x="31" y="351"/><text fill="#FFFFFF" font-family="sans-serif" font-size="16" font-weight="bold" lengthAdjust="spacing" textLength="152" x="60" y="375.8516">Analysis Services</text><text fill="#FFFFFF" font-family="sans-serif" font-size="14" lengthAdjust="spacing" textLength="4" x="134" y="392.6201"> </text><text fill="#FFFFFF" font-family="sans-serif" font-size="14" lengthAdjust="spacing" textLength="182" x="45" y="408.917">Higher level data functions</text><text fill="#FFFFFF" font-family="sans-serif" font-size="14" lengthAdjust="spacing" textLength="167" x="50.5" y="425.2139">to access and transform</text><text fill="#FFFFFF" font-family="sans-serif" font-size="14" lengthAdjust="spacing" textLength="34" x="119" y="441.5107">data.</text></g><!--MD5=[d4c4ca0c6539aad8b80246bd3465f857]
entity ads--><g id="elem_ads"><rect fill="#999999" height="138.7344" rx="2.5" ry="2.5" style="stroke:#8A8A8A;stroke-width:0.5;" width="215" x="276.5" y="333.5"/><text fill="#FFFFFF" font-family="sans-serif" font-size="16" font-weight="bold" lengthAdjust="spacing" textLength="85" x="338.5" y="358.3516">Algorithm</text><text fill="#FFFFFF" font-family="sans-serif" font-size="16" font-weight="bold" lengthAdjust="spacing" textLength="117" x="325.5" y="376.9766">Development</text><text fill="#FFFFFF" font-family="sans-serif" font-size="14" lengthAdjust="spacing" textLength="4" x="382" y="393.7451"> </text><text fill="#FFFFFF" font-family="sans-serif" font-size="14" lengthAdjust="spacing" textLength="179" x="294.5" y="410.042">Subsystem for developing</text><text fill="#FFFFFF" font-family="sans-serif" font-size="14" lengthAdjust="spacing" textLength="167" x="298.5" y="426.3389">and assembling science</text><text fill="#FFFFFF" font-family="sans-serif" font-size="14" lengthAdjust="spacing" textLength="191" x="286.5" y="442.6357">algorithms into an algorithm</text><text fill="#FFFFFF" font-family="sans-serif" font-size="14" lengthAdjust="spacing" textLength="50" x="359" y="458.9326">catalog</text></g><!--MD5=[e29493a8775effcafa538aa0485107d1]
entity auth--><g id="elem_auth"><rect fill="#438DD5" height="120.1094" rx="2.5" ry="2.5" style="stroke:#3C7FC0;stroke-width:0.5;" width="215" x="1321.5" y="343"/><text fill="#FFFFFF" font-family="sans-serif" font-size="16" font-weight="bold" lengthAdjust="spacing" textLength="130" x="1361" y="367.8516">Authentication</text><text fill="#FFFFFF" font-family="sans-serif" font-size="16" font-weight="bold" lengthAdjust="spacing" textLength="65" x="1396.5" y="386.4766">Service</text><text fill="#FFFFFF" font-family="sans-serif" font-size="12" font-style="italic" lengthAdjust="spacing" textLength="90" x="1384" y="401.3887">[Cognito, SSO]</text><text fill="#FFFFFF" font-family="sans-serif" font-size="14" lengthAdjust="spacing" textLength="4" x="1427" y="417.2139"> </text><text fill="#FFFFFF" font-family="sans-serif" font-size="14" lengthAdjust="spacing" textLength="187" x="1335.5" y="433.5107">Authenticate and authorize</text><text fill="#FFFFFF" font-family="sans-serif" font-size="14" lengthAdjust="spacing" textLength="170" x="1344" y="449.8076">users at point of request</text></g><!--MD5=[ad2d8a37fcd8bd3d1948ca966d1ba773]
entity lggng--><g id="elem_lggng"><rect fill="#438DD5" height="117.7813" rx="2.5" ry="2.5" style="stroke:#3C7FC0;stroke-width:0.5;" width="207" x="585.5" y="344"/><text fill="#FFFFFF" font-family="sans-serif" font-size="16" font-weight="bold" lengthAdjust="spacing" textLength="150" x="614" y="368.8516">Logging Services</text><text fill="#FFFFFF" font-family="sans-serif" font-size="12" font-style="italic" lengthAdjust="spacing" textLength="34" x="672" y="383.7637">[TBD]</text><text fill="#FFFFFF" font-family="sans-serif" font-size="14" lengthAdjust="spacing" textLength="4" x="687" y="399.5889"> </text><text fill="#FFFFFF" font-family="sans-serif" font-size="14" lengthAdjust="spacing" textLength="179" x="599.5" y="415.8857">Provides a systematic way</text><text fill="#FFFFFF" font-family="sans-serif" font-size="14" lengthAdjust="spacing" textLength="172" x="601" y="432.1826">for other service areas to</text><text fill="#FFFFFF" font-family="sans-serif" font-size="14" lengthAdjust="spacing" textLength="83" x="647.5" y="448.4795">publish logs</text></g><!--MD5=[1745b23996e5cce516134b88e9f9d69d]
entity mtrcs--><g id="elem_mtrcs"><rect fill="#438DD5" height="117.7813" rx="2.5" ry="2.5" style="stroke:#3C7FC0;stroke-width:0.5;" width="207" x="827.5" y="344"/><text fill="#FFFFFF" font-family="sans-serif" font-size="16" font-weight="bold" lengthAdjust="spacing" textLength="148" x="857" y="368.8516">Metrics Services</text><text fill="#FFFFFF" font-family="sans-serif" font-size="12" font-style="italic" lengthAdjust="spacing" textLength="34" x="914" y="383.7637">[TBD]</text><text fill="#FFFFFF" font-family="sans-serif" font-size="14" lengthAdjust="spacing" textLength="4" x="929" y="399.5889"> </text><text fill="#FFFFFF" font-family="sans-serif" font-size="14" lengthAdjust="spacing" textLength="179" x="841.5" y="415.8857">Provides a systematic way</text><text fill="#FFFFFF" font-family="sans-serif" font-size="14" lengthAdjust="spacing" textLength="172" x="843" y="432.1826">for other service areas to</text><text fill="#FFFFFF" font-family="sans-serif" font-size="14" lengthAdjust="spacing" textLength="105" x="878.5" y="448.4795">publish metrics</text></g><!--MD5=[467465f5934668231fcb9440f8df2ff4]
entity ntfy--><g id="elem_ntfy"><rect fill="#438DD5" height="150.375" rx="2.5" ry="2.5" style="stroke:#3C7FC0;stroke-width:0.5;" width="217" x="1069.5" y="328"/><text fill="#FFFFFF" font-family="sans-serif" font-size="16" font-weight="bold" lengthAdjust="spacing" textLength="182" x="1087" y="352.8516">Notification Services</text><text fill="#FFFFFF" font-family="sans-serif" font-size="12" font-style="italic" lengthAdjust="spacing" textLength="34" x="1161" y="367.7637">[TBD]</text><text fill="#FFFFFF" font-family="sans-serif" font-size="14" lengthAdjust="spacing" textLength="4" x="1176" y="383.5889"> </text><text fill="#FFFFFF" font-family="sans-serif" font-size="14" lengthAdjust="spacing" textLength="179" x="1088.5" y="399.8857">Provides a systematic way</text><text fill="#FFFFFF" font-family="sans-serif" font-size="14" lengthAdjust="spacing" textLength="172" x="1090" y="416.1826">for other service areas to</text><text fill="#FFFFFF" font-family="sans-serif" font-size="14" lengthAdjust="spacing" textLength="197" x="1079.5" y="432.4795">provide machine-to-machine</text><text fill="#FFFFFF" font-family="sans-serif" font-size="14" lengthAdjust="spacing" textLength="144" x="1104" y="448.7764">and machine-to-user</text><text fill="#FFFFFF" font-family="sans-serif" font-size="14" lengthAdjust="spacing" textLength="83" x="1136.5" y="465.0732">notifications</text></g><!--MD5=[389badd7c35f4ea505f5befbc26a5052]
entity deployment--><g id="elem_deployment"><rect fill="#438DD5" height="134.0781" rx="2.5" ry="2.5" style="stroke:#3C7FC0;stroke-width:0.5;" width="209" x="1571.5" y="336"/><text fill="#FFFFFF" font-family="sans-serif" font-size="16" font-weight="bold" lengthAdjust="spacing" textLength="187" x="1582.5" y="360.8516">Deployment Services</text><text fill="#FFFFFF" font-family="sans-serif" font-size="12" font-style="italic" lengthAdjust="spacing" textLength="34" x="1659" y="375.7637">[TBD]</text><text fill="#FFFFFF" font-family="sans-serif" font-size="14" lengthAdjust="spacing" textLength="4" x="1674" y="391.5889"> </text><text fill="#FFFFFF" font-family="sans-serif" font-size="14" lengthAdjust="spacing" textLength="181" x="1585.5" y="407.8857">Provides registries, artifact</text><text fill="#FFFFFF" font-family="sans-serif" font-size="14" lengthAdjust="spacing" textLength="168" x="1590" y="424.1826">control, and deployment</text><text fill="#FFFFFF" font-family="sans-serif" font-size="14" lengthAdjust="spacing" textLength="170" x="1589" y="440.4795">support for other service</text><text fill="#FFFFFF" font-family="sans-serif" font-size="14" lengthAdjust="spacing" textLength="42" x="1655" y="456.7764">areas.</text></g><!--MD5=[ebe906dc62c9da851afbaa06550d0691]
link deployment to ext--><g id="link_deployment_ext"><path d="M1627.4,335.88 C1607.01,311.99 1581.61,286.6 1554,269 C1508.01,239.69 1490.38,243.17 1437,232 C1239.93,190.745 1014.9225,166.55 838.1975,152.6413 C749.835,145.6869 673.5431,141.3041 618.8494,138.6461 C591.5025,137.3171 569.5552,136.4193 554.1983,135.8469 C550.3591,135.7038 546.9317,135.5811 543.9349,135.477 C542.4365,135.4249 541.0458,135.3776 539.765,135.3347 C539.1245,135.3132 538.5116,135.2929 537.9265,135.2736 C537.6339,135.264 537.3483,135.2547 537.0696,135.2456 " fill="none" id="deployment-to-ext" style="stroke:#666666;stroke-width:1.0;"/><polygon fill="#666666" points="537.0696,135.2456,544.9677,138.5046,545.1631,132.5078,537.0696,135.2456" style="stroke:#666666;stroke-width:1.0;"/><text fill="#666666" font-family="sans-serif" font-size="12" font-weight="bold" lengthAdjust="spacing" textLength="65" x="1556" y="244.1387">Supports</text><text fill="#666666" font-family="sans-serif" font-size="12" font-weight="bold" lengthAdjust="spacing" textLength="103" x="1539" y="258.1074">Deployment of</text></g><!--MD5=[d194b8db0bf9d158e49be3a46b9aff77]
link auth to ext--><g id="link_auth_ext"><path d="M1387.19,342.75 C1365.39,316.19 1336.48,286.87 1304,269 C1228.03,227.21 1036.7025,193.905 863.17,170.9513 C776.4038,159.4744 694.0863,150.5853 632.8616,144.5173 C602.2492,141.4834 576.9101,139.1546 558.9246,137.5604 C549.9319,136.7632 542.7776,136.1497 537.7219,135.7234 " fill="none" id="auth-to-ext" style="stroke:#666666;stroke-width:1.0;"/><polygon fill="#666666" points="537.7219,135.7234,545.4415,139.3849,545.9456,133.4062,537.7219,135.7234" style="stroke:#666666;stroke-width:1.0;"/><text fill="#666666" font-family="sans-serif" font-size="12" font-weight="bold" lengthAdjust="spacing" textLength="144" x="1284" y="251.1387">Authenticates users</text></g><!--MD5=[f430c8a1101a3df6879e744101f1259b]
link ext to lggng--><g id="link_ext_lggng"><path d="M537.0923,148.5034 C537.1909,148.668 537.2903,148.8338 537.3904,149.001 C537.5908,149.3354 537.7944,149.6751 538.0011,150.02 C538.4145,150.7098 538.8403,151.4205 539.2784,152.1514 C540.1544,153.6133 541.079,155.1562 542.0492,156.7752 C549.8109,169.7272 560.4919,187.5506 572.5838,207.7288 C596.7675,248.085 626.595,297.86 650,336.92 " fill="none" id="ext-to-lggng" style="stroke:#666666;stroke-width:1.0;"/><polygon fill="#666666" points="654.17,343.88,652.6394,335.4742,647.4897,338.5533,654.17,343.88" style="stroke:#666666;stroke-width:1.0;"/><text fill="#666666" font-family="sans-serif" font-size="12" font-weight="bold" lengthAdjust="spacing" textLength="107" x="606" y="244.1387">Publishes Logs</text><text fill="#666666" font-family="sans-serif" font-size="12" font-style="italic" lengthAdjust="spacing" textLength="36" x="641.5" y="258.1074">[http]</text></g><!--MD5=[e2026fcb0d6309444c4293e87c6f1482]
link ext to mtrcs--><g id="link_ext_mtrcs"><path d="M537.2304,137.6071 C537.5425,137.7081 537.863,137.812 538.1916,137.9188 C543.4498,139.6279 550.8003,142.0735 559.8169,145.2177 C577.85,151.5059 602.5475,160.5881 630.5,172.1588 C686.405,195.3 755.33,228.395 810,269 C836.11,288.39 861.01,314.03 881.36,337.62 " fill="none" id="ext-to-mtrcs" style="stroke:#666666;stroke-width:1.0;"/><polygon fill="#666666" points="886.7,343.88,883.7948,335.8451,879.2279,339.7366,886.7,343.88" style="stroke:#666666;stroke-width:1.0;"/><text fill="#666666" font-family="sans-serif" font-size="12" font-weight="bold" lengthAdjust="spacing" textLength="125" x="798" y="244.1387">Publishes Metrics</text><text fill="#666666" font-family="sans-serif" font-size="12" font-style="italic" lengthAdjust="spacing" textLength="36" x="842.5" y="258.1074">[http]</text></g><!--MD5=[2d64f4e1a71ce44889decf51d8b0db9a]
link ext to ntfy--><g id="link_ext_ntfy"><path d="M537.6058,135.3089 C537.8298,135.3185 538.058,135.3284 538.2903,135.3386 C540.1489,135.4201 542.2722,135.5196 544.6472,135.6403 C554.1475,136.1232 567.6759,136.9468 584.4036,138.3242 C617.8591,141.0791 664.1119,146.0494 716.5313,154.9413 C821.37,172.725 950.875,206.195 1052,269 C1074.77,283.14 1096.21,302.39 1114.72,321.85 " fill="none" id="ext-to-ntfy" style="stroke:#666666;stroke-width:1.0;"/><polygon fill="#666666" points="1120.37,327.88,1117.1019,319.9857,1112.717,324.0812,1120.37,327.88" style="stroke:#666666;stroke-width:1.0;"/><text fill="#666666" font-family="sans-serif" font-size="12" font-weight="bold" lengthAdjust="spacing" textLength="55" x="1038" y="244.1387">Notifies</text><text fill="#666666" font-family="sans-serif" font-size="12" font-style="italic" lengthAdjust="spacing" textLength="73" x="1029" y="258.1074">[email/http]</text></g><!--MD5=[12853f797ecbccb97d7945848cad75a9]
link sps to ds--></g></svg>