<?xml version="1.0" encoding="UTF-8" standalone="no"?><svg xmlns="http://www.w3.org/2000/svg" xmlns:xlink="http://www.w3.org/1999/xlink" contentStyleType="text/css" height="363px" preserveAspectRatio="none" style="width:1237px;height:363px;background:#FFFFFF;" version="1.1" viewBox="0 0 1237 363" width="1237px" zoomAndPan="magnify"><defs/><g><!--MD5=[4fc7062ed4edd664ef2653f8bfc5883f]
cluster Unity--><g id="cluster_Unity"><path d="M88.5529,57.7911 C108.7529,17.4426 144.2136,18.1512 166.4088,55.7995 C180.7781,18.0518 213.4743,17.3533 234.484,49.3147 C258.2907,18.5904 289.1212,11.6225 311.9731,50.3795 C333.8775,8.0076 372.0808,16.9355 393.1464,51.2672 C408.9463,16.4255 439.7654,19.1284 461.2909,44.822 C487.4979,10.5251 527.7849,7.4237 547.0255,52.3601 C567.4042,12.112 605.2667,9.3374 626.8157,51.2232 C648.7295,15.8235 673.1275,21.7141 693.2783,52.9808 C712.6214,17.2394 751.6775,10.3141 772.9958,50.9184 C793.9544,20.9512 824.8686,11.6964 845.8132,50.9331 C875.4515,6.4151 907.5721,6 933.7768,54.1909 C957.5638,12.4554 984.9309,15.9981 1010.4104,52.5339 C1031.7065,18.8186 1064.6293,12.8664 1089.8733,47.9758 C1113.4577,20.504 1139.7505,12.0958 1160.2902,51.1964 C1169.4425,51.7954 1170.5505,56.4897 1167.0359,63.8444 C1220.2107,98.9766 1225.2687,138.8305 1173.826,180.0743 C1230.6691,226.9766 1213.4297,272.1208 1153.2902,298.7864 C1162.8947,298.194 1165.2792,304.6907 1162.3203,312.4197 C1135.297,344.4533 1104.4261,349.1735 1083.2399,306.2607 C1060.1239,344.9871 1027.9342,346.2965 1000.1112,311.5892 C974.9408,340.8717 951.2005,333.615 932.7183,303.9437 C912.6456,342.485 876.8411,342.6442 855.9802,304.7348 C837.4633,343.4379 801.6746,343.2464 781.3456,306.528 C757.9839,347.4282 719.4961,350.6446 694.2102,308.5482 C678.7745,343.0976 649.7873,344.6802 627.715,315.4696 C596.7249,353.2798 568.9154,356.7926 542.8884,310.4659 C521.1082,346.3248 484.011,344.9216 468.9145,304.0244 C447.274,336.6871 416.4223,341.4565 394.5152,304.3084 C373.4296,342.9235 339.0921,334.7051 318.8087,303.4393 C299.3002,345.6782 265.6027,343.0692 241.7679,307.736 C219.4631,344.2387 180.7666,344.6283 163.6815,302.5492 C126.5665,340.3393 96.4144,341.6169 69.2902,291.7864 C75.1519,289.7966 77.1848,292.9836 77.069,298.2205 C16.1652,266.6513 6,216.4739 68.7409,176.4484 C11.7516,138.14 17.1192,75.8742 76.2902,44.1964 C87.8744,42.2726 90.625,47.3966 88.5529,57.7911 " style="stroke:#181818;stroke-width:1.0;fill:none;"/><text fill="#000000" font-family="sans-serif" font-size="14" font-weight="bold" lengthAdjust="spacing" textLength="40" x="594.7902" y="62.1915">Unity</text></g><!--MD5=[d897287dae925d56dedfddcc32dbfb40]
cluster Unity Shared Services--><g id="cluster_Unity Shared Services"><rect height="203.59" rx="2.5" ry="2.5" style="stroke:#181818;stroke-width:1.0;fill:none;" width="375" x="85.2902" y="79.1964"/><line style="stroke:#181818;stroke-width:1.0;fill:none;" x1="85.2902" x2="460.2902" y1="99.4933" y2="99.4933"/><text fill="#000000" font-family="sans-serif" font-size="14" font-weight="bold" lengthAdjust="spacing" textLength="174" x="185.7902" y="94.1915">Unity Shared Services</text></g><!--MD5=[004f56ad22a27ea56f358e09c778f34f]
cluster Project deployed services--><g id="cluster_Project deployed services"><rect height="203.59" rx="2.5" ry="2.5" style="stroke:#181818;stroke-width:1.0;fill:none;" width="660" x="484.2902" y="79.1964"/><line style="stroke:#181818;stroke-width:1.0;fill:none;" x1="484.2902" x2="1144.2902" y1="99.4933" y2="99.4933"/><text fill="#000000" font-family="sans-serif" font-size="14" font-weight="bold" lengthAdjust="spacing" textLength="206" x="711.2902" y="94.1915">Project deployed services</text></g><!--MD5=[66bb26d03eb2c787e69f80042ad36256]
entity Application Catalog--><g id="elem_Application Catalog"><rect fill="#F1F1F1" height="46.2969" rx="2.5" ry="2.5" style="stroke:#181818;stroke-width:0.5;" width="171" x="101.7902" y="114.1964"/><rect fill="#F1F1F1" height="10" style="stroke:#181818;stroke-width:0.5;" width="15" x="252.7902" y="119.1964"/><rect fill="#F1F1F1" height="2" style="stroke:#181818;stroke-width:0.5;" width="4" x="250.7902" y="121.1964"/><rect fill="#F1F1F1" height="2" style="stroke:#181818;stroke-width:0.5;" width="4" x="250.7902" y="125.1964"/><text fill="#000000" font-family="sans-serif" font-size="14" lengthAdjust="spacing" textLength="131" x="116.7902" y="147.1915">Application Catalog</text></g><!--MD5=[b4a71add82b186bc48f1ed57bda05055]
entity Data Catalog--><g id="elem_Data Catalog"><rect fill="#F1F1F1" height="46.2969" rx="2.5" ry="2.5" style="stroke:#181818;stroke-width:0.5;" width="128" x="308.2902" y="114.1964"/><rect fill="#F1F1F1" height="10" style="stroke:#181818;stroke-width:0.5;" width="15" x="416.2902" y="119.1964"/><rect fill="#F1F1F1" height="2" style="stroke:#181818;stroke-width:0.5;" width="4" x="414.2902" y="121.1964"/><rect fill="#F1F1F1" height="2" style="stroke:#181818;stroke-width:0.5;" width="4" x="414.2902" y="125.1964"/><text fill="#000000" font-family="sans-serif" font-size="14" lengthAdjust="spacing" textLength="88" x="323.2902" y="147.1915">Data Catalog</text></g><!--MD5=[0f43bcbb1d630ce60e37d23a34825b59]
entity Provenance Store--><g id="elem_Provenance Store"><rect fill="#F1F1F1" height="46.2969" rx="2.5" ry="2.5" style="stroke:#181818;stroke-width:0.5;" width="163" x="101.7902" y="220.4864"/><rect fill="#F1F1F1" height="10" style="stroke:#181818;stroke-width:0.5;" width="15" x="244.7902" y="225.4864"/><rect fill="#F1F1F1" height="2" style="stroke:#181818;stroke-width:0.5;" width="4" x="242.7902" y="227.4864"/><rect fill="#F1F1F1" height="2" style="stroke:#181818;stroke-width:0.5;" width="4" x="242.7902" y="231.4864"/><text fill="#000000" font-family="sans-serif" font-size="14" lengthAdjust="spacing" textLength="123" x="116.7902" y="253.4815">Provenance Store</text></g><!--MD5=[b49be088ad9890e888ca61edc1e6559f]
entity DAPA endpoint--><g id="elem_DAPA endpoint"><rect fill="#F1F1F1" height="46.2969" rx="2.5" ry="2.5" style="stroke:#181818;stroke-width:0.5;" width="144" x="300.2902" y="220.4864"/><rect fill="#F1F1F1" height="10" style="stroke:#181818;stroke-width:0.5;" width="15" x="424.2902" y="225.4864"/><rect fill="#F1F1F1" height="2" style="stroke:#181818;stroke-width:0.5;" width="4" x="422.2902" y="227.4864"/><rect fill="#F1F1F1" height="2" style="stroke:#181818;stroke-width:0.5;" width="4" x="422.2902" y="231.4864"/><text fill="#000000" font-family="sans-serif" font-size="14" lengthAdjust="spacing" textLength="104" x="315.2902" y="253.4815">DAPA endpoint</text></g><!--MD5=[a11c436df1fbff855a185eccb61c4ad0]
entity ADES--><g id="elem_ADES"><rect fill="#F1F1F1" height="46.2969" rx="2.5" ry="2.5" style="stroke:#181818;stroke-width:0.5;" width="78" x="500.2902" y="114.1964"/><rect fill="#F1F1F1" height="10" style="stroke:#181818;stroke-width:0.5;" width="15" x="558.2902" y="119.1964"/><rect fill="#F1F1F1" height="2" style="stroke:#181818;stroke-width:0.5;" width="4" x="556.2902" y="121.1964"/><rect fill="#F1F1F1" height="2" style="stroke:#181818;stroke-width:0.5;" width="4" x="556.2902" y="125.1964"/><text fill="#000000" font-family="sans-serif" font-size="14" lengthAdjust="spacing" textLength="38" x="515.2902" y="147.1915">ADES</text></g><!--MD5=[bfe2fd91b3f1330e2b368658c2890c50]
entity Application Development Environment--><g id="elem_Application Development Environment"><rect fill="#F1F1F1" height="46.2969" rx="2.5" ry="2.5" style="stroke:#181818;stroke-width:0.5;" width="303" x="612.7902" y="114.1964"/><rect fill="#F1F1F1" height="10" style="stroke:#181818;stroke-width:0.5;" width="15" x="895.7902" y="119.1964"/><rect fill="#F1F1F1" height="2" style="stroke:#181818;stroke-width:0.5;" width="4" x="893.7902" y="121.1964"/><rect fill="#F1F1F1" height="2" style="stroke:#181818;stroke-width:0.5;" width="4" x="893.7902" y="125.1964"/><text fill="#000000" font-family="sans-serif" font-size="14" lengthAdjust="spacing" textLength="263" x="627.7902" y="147.1915">Application Development Environment</text></g><!--MD5=[0d7f123c45bb853fe64d083ea4ea963b]
entity Ingestion Workflows--><g id="elem_Ingestion Workflows"><rect fill="#F1F1F1" height="46.2969" rx="2.5" ry="2.5" style="stroke:#181818;stroke-width:0.5;" width="178" x="950.2902" y="114.1964"/><rect fill="#F1F1F1" height="10" style="stroke:#181818;stroke-width:0.5;" width="15" x="1108.2902" y="119.1964"/><rect fill="#F1F1F1" height="2" style="stroke:#181818;stroke-width:0.5;" width="4" x="1106.2902" y="121.1964"/><rect fill="#F1F1F1" height="2" style="stroke:#181818;stroke-width:0.5;" width="4" x="1106.2902" y="125.1964"/><text fill="#000000" font-family="sans-serif" font-size="14" lengthAdjust="spacing" textLength="138" x="965.2902" y="147.1915">Ingestion Workflows</text></g><!--MD5=[8bcae8572d488506bfdc12d6007cbabe]
entity Data Buckets (s3)--><g id="elem_Data Buckets (s3)"><rect fill="#F1F1F1" height="46.2969" rx="2.5" ry="2.5" style="stroke:#181818;stroke-width:0.5;" width="164" x="500.2902" y="220.4864"/><rect fill="#F1F1F1" height="10" style="stroke:#181818;stroke-width:0.5;" width="15" x="644.2902" y="225.4864"/><rect fill="#F1F1F1" height="2" style="stroke:#181818;stroke-width:0.5;" width="4" x="642.2902" y="227.4864"/><rect fill="#F1F1F1" height="2" style="stroke:#181818;stroke-width:0.5;" width="4" x="642.2902" y="231.4864"/><text fill="#000000" font-family="sans-serif" font-size="14" lengthAdjust="spacing" textLength="124" x="515.2902" y="253.4815">Data Buckets (s3)</text></g><!--MD5=[40a52c769e14840aa904db827ce574be]
entity Analysis Services--><g id="elem_Analysis Services"><rect fill="#F1F1F1" height="46.2969" rx="2.5" ry="2.5" style="stroke:#181818;stroke-width:0.5;" width="157" x="699.7902" y="220.4864"/><rect fill="#F1F1F1" height="10" style="stroke:#181818;stroke-width:0.5;" width="15" x="836.7902" y="225.4864"/><rect fill="#F1F1F1" height="2" style="stroke:#181818;stroke-width:0.5;" width="4" x="834.7902" y="227.4864"/><rect fill="#F1F1F1" height="2" style="stroke:#181818;stroke-width:0.5;" width="4" x="834.7902" y="231.4864"/><text fill="#000000" font-family="sans-serif" font-size="14" lengthAdjust="spacing" textLength="117" x="714.7902" y="253.4815">Analysis Services</text></g><!--MD5=[e843f0618a341b47190acb14ef5f8d79]
link Application Catalog to Data Catalog--></g></svg>