<?xml version="1.0" encoding="UTF-8" standalone="no"?><svg xmlns="http://www.w3.org/2000/svg" xmlns:xlink="http://www.w3.org/1999/xlink" contentStyleType="text/css" height="359px" preserveAspectRatio="none" style="width:1239px;height:359px;background:#FFFFFF;" version="1.1" viewBox="0 0 1239 359" width="1239px" zoomAndPan="magnify"><defs/><g><!--MD5=[4fc7062ed4edd664ef2653f8bfc5883f]
cluster Unity--><g id="cluster_Unity"><path d="M84.713,56.1721 C99.4013,22.4646 135.0836,8.284 159.5877,45.862 C188.4295,6 217.2662,11.2066 244.685,47.4531 C263.1219,9.5898 297.3479,20.4264 314.496,48.8112 C334.2786,10.4564 374.3342,11.8267 394.6883,48.1979 C423.0312,20.0691 448.3832,14.1628 470.6455,54.9041 C491.835,16.9455 524.1725,15.8816 549.2022,50.7625 C572.2962,14.6169 596.3936,20.0808 620.1907,50.0071 C642.6987,20.0626 675.7744,15.3295 694.3864,54.2073 C716.0675,10.9812 749.1288,9.449 778.9137,45.5751 C798.5196,11.9793 832.0864,6.6087 853.1268,44.077 C882.2347,10.2147 910.8302,19.5818 928.1673,56.5478 C947.1313,23.9953 983.4296,18.3957 1004.5787,54.1018 C1029.8451,15.9213 1059.5597,13.8977 1088.5672,49.8643 C1108.8044,20.3315 1144.4184,11.5136 1163.1287,51.5019 C1171.103,54.82 1172.3334,59.0107 1165.8723,65.2166 C1232.105,92.579 1222.6292,139.2857 1179.4157,179.6062 C1227.5663,228.1083 1212.0026,270.374 1156.1287,298.5019 C1159.7239,295.7977 1162.8799,296.3258 1164.1795,301.0051 C1144.6188,333.9459 1110.8717,340.7771 1088.8034,303.7048 C1064.6466,346.1029 1037.9297,350.036 1006.5953,310.9457 C981.2831,344.0067 947.1961,350.179 924.9603,307.6245 C902.8369,345.251 868.0107,337.2578 848.3034,304.9753 C830.7797,343.7479 800.4887,342.6403 775.1562,313.3697 C752.5446,347.7178 718.4455,350.3075 697.2999,311.803 C672.747,340.5017 648.5976,337.9761 629.7418,305.5103 C600.2196,348.7369 572.3572,352.6916 539.5955,308.8649 C522.652,337.6028 491.1856,342.1725 472.4509,310.8681 C444.77,344.839 414.3028,349.3202 391.9188,305.3922 C370.1556,342.2393 335.6589,349.0983 308.5603,311.3549 C285.4635,349.2765 252.4146,347.7105 234.0089,306.9121 C212.7257,340.3279 177.5293,334.5125 162.3585,300.4242 C131.5742,341.3799 91.8457,344.275 70.1287,291.5019 C70.4935,291.515 70.7115,291.7485 70.4894,292.1098 C19.7417,256.7689 7.0704,210.9854 69.8044,174.9809 C10.6295,138.5245 6,73.6438 77.1287,44.5019 C84.8246,44.648 87.5689,49.1685 84.713,56.1721 " style="stroke:#181818;stroke-width:1.0;fill:none;"/><text fill="#000000" font-family="sans-serif" font-size="14" font-weight="bold" lengthAdjust="spacing" textLength="40" x="596.6287" y="62.497">Unity</text></g><!--MD5=[d897287dae925d56dedfddcc32dbfb40]
cluster Unity Shared Services--><g id="cluster_Unity Shared Services"><rect height="203" rx="2.5" ry="2.5" style="stroke:#181818;stroke-width:1.0;fill:none;" width="375" x="772.1287" y="79.5019"/><line style="stroke:#181818;stroke-width:1.0;fill:none;" x1="772.1287" x2="1147.1287" y1="99.7988" y2="99.7988"/><text fill="#000000" font-family="sans-serif" font-size="14" font-weight="bold" lengthAdjust="spacing" textLength="174" x="872.6287" y="94.497">Unity Shared Services</text></g><!--MD5=[004f56ad22a27ea56f358e09c778f34f]
cluster Project deployed services--><g id="cluster_Project deployed services"><rect height="203" rx="2.5" ry="2.5" style="stroke:#181818;stroke-width:1.0;fill:none;" width="662" x="86.1287" y="79.5019"/><line style="stroke:#181818;stroke-width:1.0;fill:none;" x1="86.1287" x2="748.1287" y1="99.7988" y2="99.7988"/><text fill="#000000" font-family="sans-serif" font-size="14" font-weight="bold" lengthAdjust="spacing" textLength="206" x="314.1287" y="94.497">Project deployed services</text></g><!--MD5=[66bb26d03eb2c787e69f80042ad36256]
entity Application Catalog--><g id="elem_Application Catalog"><rect fill="#F1F1F1" height="46.2969" rx="2.5" ry="2.5" style="stroke:#181818;stroke-width:0.5;" width="171" x="788.6287" y="114.5019"/><rect fill="#F1F1F1" height="10" style="stroke:#181818;stroke-width:0.5;" width="15" x="939.6287" y="119.5019"/><rect fill="#F1F1F1" height="2" style="stroke:#181818;stroke-width:0.5;" width="4" x="937.6287" y="121.5019"/><rect fill="#F1F1F1" height="2" style="stroke:#181818;stroke-width:0.5;" width="4" x="937.6287" y="125.5019"/><text fill="#000000" font-family="sans-serif" font-size="14" lengthAdjust="spacing" textLength="131" x="803.6287" y="147.497">Application Catalog</text></g><!--MD5=[b4a71add82b186bc48f1ed57bda05055]
entity Data Catalog--><g id="elem_Data Catalog"><rect fill="#F1F1F1" height="46.2969" rx="2.5" ry="2.5" style="stroke:#181818;stroke-width:0.5;" width="128" x="995.1287" y="114.5019"/><rect fill="#F1F1F1" height="10" style="stroke:#181818;stroke-width:0.5;" width="15" x="1103.1287" y="119.5019"/><rect fill="#F1F1F1" height="2" style="stroke:#181818;stroke-width:0.5;" width="4" x="1101.1287" y="121.5019"/><rect fill="#F1F1F1" height="2" style="stroke:#181818;stroke-width:0.5;" width="4" x="1101.1287" y="125.5019"/><text fill="#000000" font-family="sans-serif" font-size="14" lengthAdjust="spacing" textLength="88" x="1010.1287" y="147.497">Data Catalog</text></g><!--MD5=[0f43bcbb1d630ce60e37d23a34825b59]
entity Provenance Store--><g id="elem_Provenance Store"><rect fill="#F1F1F1" height="46.2969" rx="2.5" ry="2.5" style="stroke:#181818;stroke-width:0.5;" width="163" x="788.6287" y="220.5019"/><rect fill="#F1F1F1" height="10" style="stroke:#181818;stroke-width:0.5;" width="15" x="931.6287" y="225.5019"/><rect fill="#F1F1F1" height="2" style="stroke:#181818;stroke-width:0.5;" width="4" x="929.6287" y="227.5019"/><rect fill="#F1F1F1" height="2" style="stroke:#181818;stroke-width:0.5;" width="4" x="929.6287" y="231.5019"/><text fill="#000000" font-family="sans-serif" font-size="14" lengthAdjust="spacing" textLength="123" x="803.6287" y="253.497">Provenance Store</text></g><!--MD5=[b49be088ad9890e888ca61edc1e6559f]
entity DAPA endpoint--><g id="elem_DAPA endpoint"><rect fill="#F1F1F1" height="46.2969" rx="2.5" ry="2.5" style="stroke:#181818;stroke-width:0.5;" width="144" x="987.1287" y="220.5019"/><rect fill="#F1F1F1" height="10" style="stroke:#181818;stroke-width:0.5;" width="15" x="1111.1287" y="225.5019"/><rect fill="#F1F1F1" height="2" style="stroke:#181818;stroke-width:0.5;" width="4" x="1109.1287" y="227.5019"/><rect fill="#F1F1F1" height="2" style="stroke:#181818;stroke-width:0.5;" width="4" x="1109.1287" y="231.5019"/><text fill="#000000" font-family="sans-serif" font-size="14" lengthAdjust="spacing" textLength="104" x="1002.1287" y="253.497">DAPA endpoint</text></g><!--MD5=[a11c436df1fbff855a185eccb61c4ad0]
entity ADES--><g id="elem_ADES"><rect fill="#F1F1F1" height="46.2969" rx="2.5" ry="2.5" style="stroke:#181818;stroke-width:0.5;" width="78" x="102.1287" y="114.5019"/><rect fill="#F1F1F1" height="10" style="stroke:#181818;stroke-width:0.5;" width="15" x="160.1287" y="119.5019"/><rect fill="#F1F1F1" height="2" style="stroke:#181818;stroke-width:0.5;" width="4" x="158.1287" y="121.5019"/><rect fill="#F1F1F1" height="2" style="stroke:#181818;stroke-width:0.5;" width="4" x="158.1287" y="125.5019"/><text fill="#000000" font-family="sans-serif" font-size="14" lengthAdjust="spacing" textLength="38" x="117.1287" y="147.497">ADES</text></g><!--MD5=[bfe2fd91b3f1330e2b368658c2890c50]
entity Application Development Environment--><g id="elem_Application Development Environment"><rect fill="#F1F1F1" height="46.2969" rx="2.5" ry="2.5" style="stroke:#181818;stroke-width:0.5;" width="303" x="215.6287" y="114.5019"/><rect fill="#F1F1F1" height="10" style="stroke:#181818;stroke-width:0.5;" width="15" x="498.6287" y="119.5019"/><rect fill="#F1F1F1" height="2" style="stroke:#181818;stroke-width:0.5;" width="4" x="496.6287" y="121.5019"/><rect fill="#F1F1F1" height="2" style="stroke:#181818;stroke-width:0.5;" width="4" x="496.6287" y="125.5019"/><text fill="#000000" font-family="sans-serif" font-size="14" lengthAdjust="spacing" textLength="263" x="230.6287" y="147.497">Application Development Environment</text></g><!--MD5=[0d7f123c45bb853fe64d083ea4ea963b]
entity Ingestion Workflows--><g id="elem_Ingestion Workflows"><rect fill="#F1F1F1" height="46.2969" rx="2.5" ry="2.5" style="stroke:#181818;stroke-width:0.5;" width="178" x="554.1287" y="114.5019"/><rect fill="#F1F1F1" height="10" style="stroke:#181818;stroke-width:0.5;" width="15" x="712.1287" y="119.5019"/><rect fill="#F1F1F1" height="2" style="stroke:#181818;stroke-width:0.5;" width="4" x="710.1287" y="121.5019"/><rect fill="#F1F1F1" height="2" style="stroke:#181818;stroke-width:0.5;" width="4" x="710.1287" y="125.5019"/><text fill="#000000" font-family="sans-serif" font-size="14" lengthAdjust="spacing" textLength="138" x="569.1287" y="147.497">Ingestion Workflows</text></g><!--MD5=[8bcae8572d488506bfdc12d6007cbabe]
entity Data Buckets (s3)--><g id="elem_Data Buckets (s3)"><rect fill="#F1F1F1" height="46.2969" rx="2.5" ry="2.5" style="stroke:#181818;stroke-width:0.5;" width="164" x="102.1287" y="220.5019"/><rect fill="#F1F1F1" height="10" style="stroke:#181818;stroke-width:0.5;" width="15" x="246.1287" y="225.5019"/><rect fill="#F1F1F1" height="2" style="stroke:#181818;stroke-width:0.5;" width="4" x="244.1287" y="227.5019"/><rect fill="#F1F1F1" height="2" style="stroke:#181818;stroke-width:0.5;" width="4" x="244.1287" y="231.5019"/><text fill="#000000" font-family="sans-serif" font-size="14" lengthAdjust="spacing" textLength="124" x="117.1287" y="253.497">Data Buckets (s3)</text></g><!--MD5=[40a52c769e14840aa904db827ce574be]
entity Analysis Services--><g id="elem_Analysis Services"><rect fill="#F1F1F1" height="46.2969" rx="2.5" ry="2.5" style="stroke:#181818;stroke-width:0.5;" width="157" x="301.6287" y="220.5019"/><rect fill="#F1F1F1" height="10" style="stroke:#181818;stroke-width:0.5;" width="15" x="438.6287" y="225.5019"/><rect fill="#F1F1F1" height="2" style="stroke:#181818;stroke-width:0.5;" width="4" x="436.6287" y="227.5019"/><rect fill="#F1F1F1" height="2" style="stroke:#181818;stroke-width:0.5;" width="4" x="436.6287" y="231.5019"/><text fill="#000000" font-family="sans-serif" font-size="14" lengthAdjust="spacing" textLength="117" x="316.6287" y="253.497">Analysis Services</text></g><!--MD5=[e843f0618a341b47190acb14ef5f8d79]
link Application Catalog to Data Catalog--></g></svg>